<?xml version="1.0" encoding="utf-8"?>
<!-- Generator: Adobe Illustrator 22.1.0, SVG Export Plug-In . SVG Version: 6.00 Build 0)  -->
<svg version="1.1" id="图层_3" xmlns="http://www.w3.org/2000/svg" xmlns:xlink="http://www.w3.org/1999/xlink" x="0px" y="0px"
	 viewBox="0 0 567 281" style="enable-background:new 0 0 567 281;" xml:space="preserve">
<style type="text/css">
	.st0{fill:#646464;}
	.st1{fill:#535351;}
	.st2{fill:#4E4D49;}
	.st3{fill:#2E2E2E;}
	.st4{fill:#E6E6E6;}
	.st5{fill:#3A3839;}
	.st6{fill:#F3C86C;}
	.st7{fill:#FFFFFF;}
	.st8{fill:#CCCCCC;}
</style>
<path class="st0" d="M531,0H22C9.8,0,0,9.8,0,22v237c0,12.1,9.8,22,22,22h509c12.2,0,22-9.9,22-22V22C553,9.8,543.2,0,531,0z
	 M22.5,273C13.9,273,7,266.1,7,257.5S13.9,242,22.5,242S38,248.9,38,257.5S31.1,273,22.5,273z M22.5,38C13.9,38,7,31.1,7,22.5
	S13.9,7,22.5,7S38,13.9,38,22.5S31.1,38,22.5,38z M530.5,273c-8.6,0-15.5-6.9-15.5-15.5s6.9-15.5,15.5-15.5s15.5,6.9,15.5,15.5
	S539.1,273,530.5,273z M530.5,38c-8.6,0-15.5-6.9-15.5-15.5S521.9,7,530.5,7S546,13.9,546,22.5S539.1,38,530.5,38z"/>
<rect y="53" class="st1" width="273" height="176"/>
<rect x="290" y="97" class="st2" width="72" height="36"/>
<rect x="414" y="89" class="st3" width="58" height="58"/>
<path class="st4" d="M566,181h-68c-0.6,0-1-0.4-1-1V98c0-0.6,0.4-1,1-1h68c0.6,0,1,0.4,1,1v82C567,180.6,566.6,181,566,181z"/>
<rect x="495.1" y="56" class="st4" width="43.3" height="29"/>
<rect x="435" y="210" class="st5" width="20" height="14"/>
<rect x="306.4" y="194.4" class="st6" width="38.9" height="30.6"/>
<rect x="332.2" y="169" class="st6" width="23.3" height="14.5"/>
<rect x="410" y="169" class="st7" width="11" height="20"/>
<path class="st4" d="M70,200.2H6.5c-1.9,0-3.5-1.6-3.5-3.5v-12.5c0-1.9,1.6-3.5,3.5-3.5h37.8v-6.1H6.5c-1.9,0-3.5-1.6-3.5-3.5v-12.2
	c0-1.9,1.6-3.5,3.5-3.5h37.8v-6.9H6.5c-1.9,0-3.5-1.6-3.5-3.5v-11.1c0-1.9,1.6-3.5,3.5-3.5h37.8v-7.6H6.5c-1.9,0-3.5-1.6-3.5-3.5V78
	c0-1.9,1.6-3.5,3.5-3.5S10,76.1,10,78v37.9h37.8c1.9,0,3.5,1.6,3.5,3.5V134c0,1.9-1.6,3.5-3.5,3.5H10v4.1h37.8
	c1.9,0,3.5,1.6,3.5,3.5V159c0,1.9-1.6,3.5-3.5,3.5H10v5.2h37.8c1.9,0,3.5,1.6,3.5,3.5v13.1c0,1.9-1.6,3.5-3.5,3.5H10v5.5h56.5v-73.9
	c0-1.9,1.6-3.5,3.5-3.5s3.5,1.6,3.5,3.5v77.4C73.5,198.6,71.9,200.2,70,200.2z"/>
<g>
	<rect x="85" y="74" class="st4" width="174" height="132.8"/>
	<g>
		<path class="st1" d="M145.3,180.2c-1.1,2.1-3.3,3.5-5.8,3.5c-3.6,0-6.6-3-6.6-6.6s3-6.6,6.6-6.6c2.2,0,4.2,1.1,5.4,2.8h5.1
			c-1.6-4.3-5.7-7.3-10.4-7.3c-6.1,0-11.1,5-11.1,11.1s5,11.1,11.1,11.1c5,0,9.3-3.4,10.7-8H145.3z"/>
		<path class="st1" d="M223.2,85.4h-57.5c-8.5,0-15.4,6.9-15.4,15.4v7.7c0,6.5,4.1,12.1,9.8,14.3l0,0l0,0c1.7,0.7,3.6,1.1,5.6,1.1
			h57.5c8.5,0,15.4-6.9,15.4-15.4v-7.7C238.6,92.4,231.7,85.4,223.2,85.4z M178,114.5l-4.9,0.1l-2.3-11.8l-2.4,11.8h-4.7L159,95h5.5
			l1.8,11.3l2.2-11.3h4.7l2.1,11.2L177,95h5.7L178,114.5z M187.2,93.7c1.5,0,2.7,1.2,2.7,2.7s-1.2,2.7-2.7,2.7s-2.7-1.2-2.7-2.7
			S185.7,93.7,187.2,93.7z M190,114.5h-5.2v-14h5.2V114.5z M235.8,108.1c0,7.3-5.8,13.2-12.9,13.2h-31c2.4-1.6,3.7-6.5,3.9-7.8
			s0.1-3.5,0.2-12.3s8-13,10.5-13h16.4c7.1,0,12.9,6,12.9,13.2V108.1z"/>
		<ellipse class="st1" cx="226" cy="96.6" rx="2.7" ry="2.7"/>
		<polygon class="st1" points="209.3,99.8 209.3,104.1 219.5,104.1 219.5,108.6 209.3,108.6 209.3,114.7 203.8,114.7 203.8,95.2 
			220.6,95.2 220.6,99.8 		"/>
		<rect x="223.5" y="100.6" class="st1" width="5.1" height="13.9"/>
	</g>
	<path class="st1" d="M124,128c-11.9,0-21.5-9.6-21.5-21.5S112.1,85,124,85s21.5,9.6,21.5,21.5S135.8,128,124,128z M124,87
		c-10.8,0-19.5,8.7-19.5,19.5c0,10.8,8.7,19.5,19.5,19.5s19.5-8.7,19.5-19.5S134.7,87,124,87z"/>
	<path class="st1" d="M123.6,117.8l-4.8-21.6h-3.1l-5.1,23.1h5.1l0.6-6.8h1.6l0.4,6.8h8V118L123.6,117.8z M116.3,108.4l1-7.6l1,7.6
		H116.3z"/>
	<polygon class="st1" points="127.7,99.7 127.7,119.8 132.2,119.8 132.2,118.4 131,118 131,99.7 	"/>
	<path class="st1" d="M133.3,99c-0.3,0-0.5-0.2-0.5-0.5c0-1-0.8-1.8-1.8-1.8c-0.3,0-0.5-0.2-0.5-0.5s0.2-0.5,0.5-0.5
		c1.5,0,2.8,1.2,2.8,2.8C133.8,98.8,133.6,99,133.3,99z"/>
	<path class="st1" d="M135.3,99c-0.3,0-0.5-0.2-0.5-0.5c0-2.1-1.7-3.8-3.8-3.8c-0.3,0-0.5-0.2-0.5-0.5s0.2-0.5,0.5-0.5
		c2.6,0,4.8,2.2,4.8,4.8C135.8,98.8,135.6,99,135.3,99z"/>
	<path class="st1" d="M138,99c-0.3,0-0.5-0.2-0.5-0.5c0-3.5-2.9-6.4-6.4-6.4c-0.3,0-0.5-0.2-0.5-0.5s0.2-0.5,0.5-0.5
		c4.1,0,7.4,3.3,7.4,7.4C138.5,98.8,138.2,99,138,99z"/>
	<g>
		<path class="st1" d="M104.4,131.1h2.1l1.3,3.5c0.2,0.5,0.3,1,0.5,1.5h0.1c0.2-0.5,0.3-1,0.5-1.5l1.3-3.5h2.1v8.2h-1.8v-2.8
			c0-0.8,0.2-2,0.3-2.8l0,0l-0.7,2l-1.1,3h-1.1l-1.1-3l-0.7-2l0,0c0.1,0.8,0.3,2,0.3,2.8v2.8h-1.8v-8.2H104.4z"/>
		<path class="st1" d="M113.7,135.2c0-2.7,1.5-4.2,3.8-4.2s3.8,1.5,3.8,4.2s-1.5,4.3-3.8,4.3S113.7,137.9,113.7,135.2z M119.2,135.2
			c0-1.6-0.7-2.5-1.7-2.5s-1.7,0.9-1.7,2.5s0.7,2.6,1.7,2.6S119.2,136.8,119.2,135.2z"/>
		<path class="st1" d="M122.7,131.1h2.4c2.5,0,4.1,1.2,4.1,4s-1.7,4.1-4,4.1h-2.5V131.1z M124.9,137.7c1.3,0,2.3-0.6,2.3-2.6
			s-0.9-2.5-2.3-2.5h-0.3v5h0.3V137.7z"/>
		<path class="st1" d="M130.7,131.1h5.2v1.6h-3.2v1.5h2.7v1.6h-2.7v1.7h3.3v1.7h-5.3V131.1z"/>
		<path class="st1" d="M137.6,131.1h2v6.5h3.2v1.7h-5.1L137.6,131.1L137.6,131.1z"/>
		<path class="st1" d="M103.4,144.3h2.1l0.9,3.7c0.2,0.9,0.4,1.7,0.6,2.6h0.1c0.2-0.9,0.4-1.7,0.6-2.6l0.9-3.7h2l-2.5,8.2h-2.4
			L103.4,144.3z"/>
		<path class="st1" d="M111.5,144.3h5.2v1.6h-3.2v1.5h2.7v1.6h-2.7v1.7h3.3v1.7h-5.3V144.3z"/>
		<path class="st1" d="M118.4,144.3h2l2,3.9l0.8,1.8h0.1c-0.1-0.9-0.3-2-0.3-3v-2.7h1.9v8.2h-2l-2-3.9l-0.8-1.8H120
			c0.1,0.9,0.3,2,0.3,3v2.7h-1.9L118.4,144.3L118.4,144.3z"/>
		<path class="st1" d="M126.8,144.3h2.4c2.5,0,4.1,1.2,4.1,4s-1.7,4.1-4,4.1h-2.5V144.3z M129,150.9c1.3,0,2.3-0.6,2.3-2.6
			c0-1.9-0.9-2.5-2.3-2.5h-0.3v5h0.3V150.9z"/>
		<path class="st1" d="M134.5,148.4c0-2.7,1.5-4.2,3.8-4.2s3.8,1.5,3.8,4.2s-1.5,4.3-3.8,4.3S134.5,151.1,134.5,148.4z M140,148.4
			c0-1.6-0.7-2.5-1.7-2.5s-1.7,0.9-1.7,2.5s0.7,2.6,1.7,2.6S140,150,140,148.4z"/>
		<path class="st1" d="M147.9,152.5l-1.5-2.9h-0.9v2.9h-2v-8.2h3c1.7,0,3.2,0.6,3.2,2.6c0,1.2-0.6,2-1.4,2.4l1.8,3.2H147.9z
			 M145.4,148.1h0.9c0.9,0,1.4-0.4,1.4-1.2s-0.5-1-1.4-1h-0.9V148.1z"/>
	</g>
	<g>
		<path class="st1" d="M161,130.4h5.7v1.8h-3.5v1.7h3v1.8h-3v1.9h3.6v1.8H161V130.4z"/>
		<path class="st1" d="M168,138.2l1.2-1.5c0.6,0.5,1.5,0.9,2.2,0.9c0.8,0,1.2-0.3,1.2-0.8s-0.5-0.7-1.3-1l-1.1-0.5
			c-0.9-0.4-1.8-1.2-1.8-2.4c0-1.5,1.3-2.7,3.2-2.7c1,0,2.1,0.4,2.9,1.2l-1.1,1.3c-0.6-0.4-1.1-0.7-1.8-0.7s-1.1,0.3-1.1,0.7
			c0,0.5,0.6,0.7,1.4,1l1.1,0.4c1.1,0.4,1.8,1.2,1.8,2.4c0,1.5-1.2,2.8-3.4,2.8C170.2,139.5,169,139.1,168,138.2z"/>
		<path class="st1" d="M176.3,130.4h3.1c2,0,3.6,0.7,3.6,2.9c0,2.1-1.6,3.1-3.5,3.1h-1v3h-2.1v-9H176.3z M179.3,134.7
			c1,0,1.5-0.5,1.5-1.4s-0.6-1.2-1.6-1.2h-0.9v2.6H179.3z"/>
		<path class="st1" d="M184,137.1c0-1.1,0.6-1.8,1.5-2.3v-0.1c-0.7-0.5-1.2-1.2-1.2-2.1c0-1.5,1.2-2.4,2.8-2.4s2.7,0.9,2.7,2.4
			c0,0.9-0.5,1.6-1.1,2v0.1c0.9,0.4,1.5,1.2,1.5,2.4c0,1.4-1.2,2.4-3.1,2.4C185.4,139.5,184,138.5,184,137.1z M188.2,137
			c0-0.8-0.7-1.1-1.8-1.6c-0.4,0.3-0.6,0.9-0.6,1.5c0,0.7,0.6,1.2,1.3,1.2C187.8,138,188.2,137.7,188.2,137z M188.1,132.8
			c0-0.6-0.4-1.1-1-1.1c-0.5,0-0.9,0.3-0.9,0.9c0,0.7,0.6,1.1,1.4,1.4C188,133.7,188.1,133.2,188.1,132.8z"/>
		<path class="st1" d="M191.3,138.1c2.2-2,3.7-3.6,3.7-4.9c0-0.8-0.5-1.3-1.2-1.3c-0.6,0-1.1,0.4-1.5,0.9l-1.2-1.2
			c0.9-0.9,1.7-1.4,3-1.4c1.7,0,2.9,1.1,2.9,2.8c0,1.5-1.3,3.2-2.7,4.6c0.4-0.1,1.1-0.1,1.5-0.1h1.6v1.8h-6.2L191.3,138.1
			L191.3,138.1z"/>
		<path class="st1" d="M203.7,132.6c-0.3-0.3-0.8-0.6-1.3-0.6c-0.9,0-1.7,0.7-1.7,2.6c0.4-0.6,1.2-0.9,1.7-0.9
			c1.5,0,2.6,0.9,2.6,2.8s-1.3,3-2.9,3c-1.7,0-3.3-1.3-3.3-4.6c0-3.2,1.7-4.7,3.5-4.7c1.2,0,2,0.5,2.6,1.1L203.7,132.6z M203,136.5
			c0-1-0.5-1.3-1.1-1.3c-0.4,0-0.9,0.2-1.3,0.8c0.2,1.5,0.7,1.9,1.3,1.9S203,137.5,203,136.5z"/>
		<path class="st1" d="M211,132.6c-0.3-0.3-0.8-0.6-1.3-0.6c-0.9,0-1.7,0.7-1.7,2.6c0.4-0.6,1.2-0.9,1.7-0.9c1.5,0,2.6,0.9,2.6,2.8
			s-1.3,3-2.9,3c-1.7,0-3.3-1.3-3.3-4.6c0-3.2,1.7-4.7,3.5-4.7c1.2,0,2,0.5,2.6,1.1L211,132.6z M210.3,136.5c0-1-0.5-1.3-1.1-1.3
			c-0.4,0-0.9,0.2-1.3,0.8c0.2,1.5,0.7,1.9,1.3,1.9S210.3,137.5,210.3,136.5z"/>
		<path class="st1" d="M213.7,130.4h2.3l1.4,3.9c0.2,0.5,0.3,1.1,0.5,1.6h0.1c0.2-0.6,0.3-1.1,0.5-1.6l1.4-3.9h2.3v8.9h-2v-3.1
			c0-0.9,0.2-2.2,0.3-3.1l0,0l-0.7,2.1l-1.2,3.3h-1.2l-1.2-3.3l-0.7-2.1l0,0c0.1,0.9,0.3,2.2,0.3,3.1v3.1h-1.9v-8.9H213.7z"/>
		<path class="st1" d="M223.9,134.8c0-2.9,1.7-4.6,4.1-4.6s4.1,1.7,4.1,4.6s-1.7,4.7-4.1,4.7S223.9,137.8,223.9,134.8z M229.8,134.8
			c0-1.7-0.7-2.7-1.9-2.7s-1.9,1-1.9,2.7s0.7,2.8,1.9,2.8S229.8,136.6,229.8,134.8z"/>
		<path class="st1" d="M233.7,130.4h2.6c2.7,0,4.5,1.3,4.5,4.4s-1.8,4.5-4.4,4.5h-2.7V130.4z M236.1,137.6c1.4,0,2.5-0.7,2.5-2.8
			c0-2.1-1-2.7-2.5-2.7h-0.3v5.5H236.1z"/>
		<path class="st1" d="M165.2,151.7h-2.6l-0.5,2.1h-2.2l2.8-8.9h2.6l2.8,8.9h-2.3L165.2,151.7z M164.8,150l-0.2-0.8
			c-0.2-0.9-0.5-2-0.7-2.9l0,0c-0.2,0.9-0.5,2-0.7,2.9L163,150H164.8z"/>
		<path class="st1" d="M169,144.8h2.1v8.9H169V144.8z"/>
		<path class="st1" d="M175.5,149.5h3.4v1.5h-3.4V149.5z"/>
		<path class="st1" d="M185,146.6h-2.4v-1.8h7v1.8h-2.4v7.1H185V146.6z"/>
		<path class="st1" d="M190.9,144.8h2.1v3.4h2.9v-3.4h2.1v8.9h-2V150h-2.9v3.7H191v-8.9L190.9,144.8L190.9,144.8z"/>
		<path class="st1" d="M200.2,144.8h2.2l2.2,4.3l0.9,2h0.1c-0.1-0.9-0.3-2.2-0.3-3.3v-3h2v8.9h-2.2l-2.2-4.3l-0.9-2l0,0
			c0.1,1,0.3,2.2,0.3,3.3v3h-2v-8.9H200.2z"/>
		<path class="st1" d="M209.4,144.8h2.1v3.5l0,0l2.5-3.5h2.4l-2.7,3.6l3.2,5.3h-2.4l-2.1-3.7l-1,1.3v2.3h-2.1v-8.8L209.4,144.8
			L209.4,144.8z"/>
		<path class="st1" d="M217.9,144.8h5.7v1.8H220v1.7h3v1.8h-3v1.9h3.6v1.8h-5.8L217.9,144.8L217.9,144.8z"/>
		<path class="st1" d="M230.3,153.7l-1.6-3.1h-1v3.1h-2.1v-8.9h3.3c1.9,0,3.5,0.6,3.5,2.8c0,1.3-0.6,2.1-1.5,2.6l2,3.5H230.3z
			 M227.6,148.9h1c1,0,1.6-0.4,1.6-1.3s-0.5-1.1-1.6-1.1h-1V148.9z"/>
		<path class="st1" d="M161,159.2h2.1v8.9H161V159.2z"/>
		<path class="st1" d="M164.7,167l1.2-1.5c0.6,0.5,1.5,0.9,2.2,0.9c0.8,0,1.2-0.3,1.2-0.8s-0.5-0.7-1.3-1l-1.1-0.5
			c-0.9-0.4-1.8-1.2-1.8-2.4c0-1.5,1.3-2.7,3.2-2.7c1,0,2.1,0.4,2.9,1.2l-1.1,1.3c-0.6-0.4-1.1-0.7-1.8-0.7s-1.1,0.3-1.1,0.7
			c0,0.5,0.6,0.7,1.4,1l1.1,0.4c1.1,0.4,1.8,1.2,1.8,2.4c0,1.5-1.2,2.8-3.4,2.8C166.8,168.3,165.6,167.9,164.7,167z"/>
		<path class="st1" d="M172.9,159.2h2.3l1.4,3.8c0.2,0.5,0.3,1.1,0.5,1.6h0.1c0.2-0.6,0.3-1.1,0.5-1.6l1.4-3.8h2.3v8.9h-2V165
			c0-0.9,0.2-2.2,0.3-3.1l0,0L179,164l-1.2,3.3h-1.2l-1.2-3.3l-0.7-2.1l0,0c0.1,0.9,0.3,2.2,0.3,3.1v3.1h-1.9v-8.9H172.9z"/>
		<path class="st1" d="M193.9,166.9c2.2-2,3.7-3.6,3.7-4.9c0-0.8-0.5-1.3-1.2-1.3c-0.6,0-1.1,0.4-1.5,0.9l-1.2-1.2
			c0.9-0.9,1.7-1.4,3-1.4c1.7,0,2.9,1.1,2.9,2.8c0,1.5-1.3,3.2-2.7,4.6c0.4-0.1,1.1-0.1,1.5-0.1h1.6v1.8h-6.2L193.9,166.9
			L193.9,166.9z"/>
		<path class="st1" d="M201.5,167c0-0.7,0.5-1.3,1.3-1.3c0.7,0,1.3,0.6,1.3,1.3c0,0.7-0.5,1.3-1.3,1.3
			C202.1,168.3,201.5,167.7,201.5,167z"/>
		<path class="st1" d="M211.9,165.9h-1v2.2h-2v-2.2h-3.7v-1.5l3.1-5.2h2.6v5.1h1L211.9,165.9L211.9,165.9z M208.9,164.3V163
			c0-0.6,0.1-1.4,0.1-2l0,0c-0.2,0.5-0.5,1-0.7,1.5l-1,1.8H208.9z"/>
		<path class="st1" d="M212.8,163.7c0-3,2-4.7,4.4-4.7c1.3,0,2.2,0.6,2.9,1.2l-1.1,1.4c-0.4-0.4-0.9-0.7-1.6-0.7
			c-1.3,0-2.3,1-2.3,2.8s0.8,2.8,2.4,2.8c0.3,0,0.7-0.1,0.9-0.2v-1.4H217V163h3.3v4.2c-0.6,0.6-1.7,1.1-3,1.1
			C214.8,168.3,212.8,166.7,212.8,163.7z"/>
		<path class="st1" d="M222,159.2h2.1v3.4h2.9v-3.4h2.1v8.9H227v-3.7h-2.9v3.7H222V159.2z"/>
		<path class="st1" d="M230.8,167l2.8-4h-2.5v-1.7h5.1v1.1l-2.8,4h2.9v1.7h-5.5L230.8,167L230.8,167z"/>
		<path class="st1" d="M161,173.6h3.1c2,0,3.6,0.7,3.6,2.9c0,2.1-1.6,3.1-3.5,3.1h-1v3H161V173.6z M164.1,177.9c1,0,1.5-0.5,1.5-1.4
			s-0.6-1.2-1.6-1.2h-0.9v2.6H164.1z"/>
		<path class="st1" d="M172.8,180.5h-2.6l-0.5,2.1h-2.2l2.8-8.9h2.6l2.8,8.9h-2.3L172.8,180.5z M172.4,178.8l-0.2-0.8
			c-0.2-0.9-0.5-2-0.7-2.9l0,0c-0.2,0.9-0.5,2-0.7,2.9l-0.2,0.8H172.4z"/>
		<path class="st1" d="M189.3,178.8h-2.4v-1.5h2.4v-2.5h1.6v2.5h2.4v1.5h-2.4v2.5h-1.6V178.8z"/>
		<path class="st1" d="M194.3,181.3c2.2-2,3.7-3.6,3.7-4.9c0-0.8-0.5-1.3-1.2-1.3c-0.6,0-1.1,0.4-1.5,0.9l-1.2-1.2
			c0.9-0.9,1.7-1.4,3-1.4c1.7,0,2.9,1.1,2.9,2.8c0,1.5-1.3,3.2-2.7,4.6c0.4-0.1,1.1-0.1,1.5-0.1h1.6v1.8h-6.2L194.3,181.3
			L194.3,181.3z"/>
		<path class="st1" d="M201.4,181.5l1-1.3c0.5,0.5,1.1,0.9,1.8,0.9c0.9,0,1.4-0.5,1.4-1.4s-0.5-1.4-1.3-1.4c-0.5,0-0.7,0.1-1.3,0.4
			l-0.9-0.6l0.2-4.4h5v1.8h-3.2L204,177c0.3-0.1,0.6-0.2,0.9-0.2c1.5,0,2.8,0.9,2.8,2.8c0,2-1.5,3.2-3.2,3.2
			C203.1,182.7,202.1,182.2,201.4,181.5z"/>
		<path class="st1" d="M208.9,179.1c0-2.2,1.4-3.6,2.8-3.6c0.8,0,1.2,0.3,1.6,0.7l-0.1-1V173h2.1v9.6h-1.7l-0.2-0.7l0,0
			c-0.5,0.5-1.1,0.8-1.8,0.8C210,182.7,208.9,181.3,208.9,179.1z M213.3,180.4v-2.7c-0.3-0.3-0.7-0.4-1.1-0.4
			c-0.6,0-1.1,0.6-1.1,1.8c0,1.3,0.4,1.9,1.2,1.9C212.7,181,213,180.8,213.3,180.4z"/>
		<path class="st1" d="M217.3,173.6h3.1c1.8,0,3.3,0.5,3.3,2.2c0,0.8-0.4,1.7-1.2,1.9l0,0c0.9,0.2,1.6,0.9,1.6,2.1
			c0,1.8-1.5,2.6-3.5,2.6h-3.4L217.3,173.6L217.3,173.6z M220.4,177.1c0.9,0,1.3-0.4,1.3-1s-0.4-0.9-1.3-0.9h-0.9v1.9H220.4z
			 M220.5,180.9c1,0,1.6-0.4,1.6-1.1s-0.5-1-1.6-1h-1.1v2.2h1.1V180.9z"/>
		<path class="st1" d="M225.5,175.7h1.7l0.1,0.9l0,0c0.6-0.6,1.2-1,2.1-1c0.9,0,1.5,0.4,1.9,1.1c0.6-0.6,1.2-1.1,2.1-1.1
			c1.5,0,2.1,1.1,2.1,2.8v4.2h-2.1v-4c0-0.9-0.2-1.2-0.8-1.2c-0.3,0-0.7,0.2-1.1,0.6v4.6h-2.1v-4c0-0.9-0.2-1.2-0.8-1.2
			c-0.3,0-0.7,0.2-1.1,0.6v4.6h-2.1v-6.9H225.5z"/>
		<path class="st1" d="M163.3,194.7c0-1.1,0.6-1.8,1.5-2.3v-0.1c-0.7-0.5-1.2-1.2-1.2-2.1c0-1.5,1.2-2.4,2.8-2.4s2.7,0.9,2.7,2.4
			c0,0.9-0.5,1.6-1.1,2v0.1c0.9,0.4,1.5,1.2,1.5,2.4c0,1.4-1.2,2.4-3.1,2.4C164.6,197.1,163.3,196.1,163.3,194.7z M167.5,194.6
			c0-0.8-0.7-1.1-1.8-1.6c-0.4,0.3-0.6,0.9-0.6,1.5c0,0.7,0.6,1.2,1.3,1.2C167,195.6,167.5,195.3,167.5,194.6z M167.4,190.4
			c0-0.6-0.4-1.1-1-1.1c-0.5,0-0.9,0.3-0.9,0.9c0,0.7,0.6,1.1,1.4,1.4C167.3,191.3,167.4,190.8,167.4,190.4z"/>
		<path class="st1" d="M170.5,192.4c0-3.1,1.3-4.6,3.2-4.6s3.2,1.5,3.2,4.6s-1.3,4.7-3.2,4.7S170.5,195.5,170.5,192.4z M174.9,192.4
			c0-2.4-0.5-2.9-1.2-2.9s-1.1,0.5-1.1,2.9s0.5,3,1.1,3S174.9,194.9,174.9,192.4z"/>
		<path class="st1" d="M177.9,195.7c2.2-2,3.7-3.6,3.7-4.9c0-0.8-0.5-1.3-1.2-1.3c-0.6,0-1.1,0.4-1.5,0.9l-1.2-1.2
			c0.9-0.9,1.7-1.4,3-1.4c1.7,0,2.9,1.1,2.9,2.8c0,1.5-1.3,3.2-2.7,4.6c0.4-0.1,1.1-0.1,1.5-0.1h1.6v1.8h-6.2L177.9,195.7
			L177.9,195.7z"/>
		<path class="st1" d="M185.5,195.8c0-0.7,0.5-1.3,1.3-1.3c0.7,0,1.3,0.6,1.3,1.3c0,0.7-0.5,1.3-1.3,1.3
			C186,197.1,185.5,196.5,185.5,195.8z"/>
		<path class="st1" d="M189.8,195.2h1.9v-5.1h-1.6v-1.3c1-0.2,1.6-0.4,2.2-0.8h1.6v7.2h1.6v1.7h-5.6L189.8,195.2L189.8,195.2z"/>
		<path class="st1" d="M197.1,195.2h1.9v-5.1h-1.6v-1.3c1-0.2,1.6-0.4,2.2-0.8h1.6v7.2h1.6v1.7h-5.6L197.1,195.2L197.1,195.2z"/>
		<path class="st1" d="M206.2,196.2L206.2,196.2l-0.2,0.7h-1.7v-9.6h2.1v2.3v1c0.5-0.5,1.1-0.7,1.8-0.7c1.6,0,2.7,1.4,2.7,3.5
			c0,2.4-1.4,3.7-2.9,3.7C207.4,197.1,206.8,196.8,206.2,196.2z M208.7,193.4c0-1.2-0.3-1.8-1.1-1.8c-0.4,0-0.7,0.2-1.1,0.6v2.7
			c0.3,0.3,0.7,0.4,1,0.4C208.2,195.4,208.7,194.8,208.7,193.4z"/>
		<path class="st1" d="M214.2,187.2h1.4l-2.6,11.9h-1.4L214.2,187.2z"/>
		<path class="st1" d="M216.3,198.1c0-0.6,0.3-1,1-1.3v-0.1c-0.4-0.2-0.6-0.6-0.6-1.2c0-0.5,0.3-1,0.8-1.3l0,0
			c-0.5-0.3-0.9-1-0.9-1.8c0-1.7,1.4-2.5,2.9-2.5c0.4,0,0.8,0.1,1.1,0.2h2.5v1.5H222c0.1,0.2,0.2,0.5,0.2,0.8c0,1.6-1.2,2.3-2.7,2.3
			c-0.2,0-0.5,0-0.8-0.1c-0.2,0.1-0.2,0.3-0.2,0.5c0,0.3,0.3,0.5,1,0.5h1.1c1.7,0,2.6,0.5,2.6,1.8c0,1.4-1.5,2.5-3.9,2.5
			C217.6,199.8,216.3,199.3,216.3,198.1z M221,197.7c0-0.4-0.4-0.5-1-0.5h-0.6c-0.5,0-0.8,0-1-0.1c-0.2,0.2-0.3,0.4-0.3,0.6
			c0,0.5,0.6,0.7,1.5,0.7S221,198.1,221,197.7z M220.2,192.4c0-0.7-0.4-1.1-0.9-1.1s-0.9,0.4-0.9,1.1s0.4,1.1,0.9,1.1
			C219.9,193.5,220.2,193.1,220.2,192.4z"/>
		<path class="st1" d="M226.4,187.2h1.4l-2.6,11.9h-1.4L226.4,187.2z"/>
		<path class="st1" d="M229.1,190.1h1.7l0.1,0.9l0,0c0.6-0.6,1.3-1,2.2-1c1.5,0,2.1,1.1,2.1,2.8v4.2h-2.1v-4c0-0.9-0.3-1.2-0.8-1.2
			s-0.8,0.2-1.2,0.6v4.6H229v-6.9H229.1z"/>
	</g>
	<path class="st1" d="M150.7,185.4h5.8c-3.1,6.3-9.5,10.6-16.9,10.6c-9.5,0-17.4-7-18.7-16.2h-12.7v16h-6v-36.4H121v5.6h-12.7v9.3
		H121c1.4-9,9.2-16,18.6-16c7.5,0,14,4.4,17,10.8h-5.7c-2.5-3.5-6.7-5.8-11.3-5.8c-7.7,0-13.9,6.2-13.9,13.9
		c0,7.7,6.3,13.9,13.9,13.9C144.1,191,148.1,188.8,150.7,185.4z"/>
</g>
<rect x="307.1" y="80.2" class="st4" width="40" height="17"/>
<rect x="298.2" y="133" class="st4" width="9.2" height="21.8"/>
<rect x="322.5" y="133" class="st4" width="9.2" height="21.8"/>
<rect x="346.8" y="133" class="st4" width="9.2" height="21.8"/>
<circle class="st2" cx="517.8" cy="69.8" r="9.8"/>
<rect x="497.8" y="194.1" class="st4" width="43.3" height="29"/>
<circle class="st2" cx="520.5" cy="207.8" r="9.8"/>
<g>
	<g>
		<g>
			<circle class="st8" cx="159.1" cy="262.6" r="11"/>
			<rect x="155.6" y="259.1" class="st4" width="7" height="7"/>
		</g>
		<g>
			<circle class="st8" cx="129.4" cy="262.6" r="11"/>
			<rect x="125.9" y="259.1" class="st4" width="7" height="7"/>
		</g>
		<g>
			<circle class="st8" cx="99.7" cy="262.6" r="11"/>
			<rect x="96.2" y="259.1" class="st4" width="7" height="7"/>
		</g>
		<g>
			<circle class="st8" cx="70" cy="262.6" r="11"/>
			<rect x="66.5" y="259.1" class="st4" width="7" height="7"/>
		</g>
		<g>
			<circle class="st8" cx="188.9" cy="262.6" r="11"/>
			<rect x="185.4" y="259.1" class="st4" width="7" height="7"/>
		</g>
		<g>
			<circle class="st8" cx="218.6" cy="262.6" r="11"/>
			<rect x="215.1" y="259.1" class="st4" width="7" height="7"/>
		</g>
		<g>
			<circle class="st8" cx="248.3" cy="262.6" r="11"/>
			<rect x="244.8" y="259.1" class="st4" width="7" height="7"/>
		</g>
		<g>
			<circle class="st8" cx="278" cy="262.6" r="11"/>
			<rect x="274.5" y="259.1" class="st4" width="7" height="7"/>
		</g>
		<g>
			<circle class="st8" cx="307.7" cy="262.6" r="11"/>
			<rect x="304.2" y="259.1" class="st4" width="7" height="7"/>
		</g>
		<g>
			<circle class="st8" cx="337.4" cy="262.6" r="11"/>
			<rect x="333.9" y="259.1" class="st4" width="7" height="7"/>
		</g>
		<g>
			<circle class="st8" cx="367.1" cy="262.6" r="11"/>
			<rect x="363.6" y="259.1" class="st4" width="7" height="7"/>
		</g>
		<g>
			<circle class="st8" cx="396.9" cy="262.6" r="11"/>
			<rect x="393.4" y="259.1" class="st4" width="7" height="7"/>
		</g>
		<g>
			<circle class="st8" cx="426.6" cy="262.6" r="11"/>
			<rect x="423.1" y="259.1" class="st4" width="7" height="7"/>
		</g>
		<g>
			<circle class="st8" cx="456.3" cy="262.6" r="11"/>
			<rect x="452.8" y="259.1" class="st4" width="7" height="7"/>
		</g>
		<g>
			<circle class="st8" cx="486" cy="262.6" r="11"/>
			<rect x="482.5" y="259.1" class="st4" width="7" height="7"/>
		</g>
	</g>
	<g>
		<g>
			<circle class="st8" cx="158.1" cy="17.8" r="11"/>
			<rect x="154.6" y="14.3" class="st4" width="7" height="7"/>
		</g>
		<g>
			<circle class="st8" cx="128.4" cy="17.8" r="11"/>
			<rect x="124.9" y="14.3" class="st4" width="7" height="7"/>
		</g>
		<g>
			<circle class="st8" cx="98.7" cy="17.8" r="11"/>
			<rect x="95.2" y="14.3" class="st4" width="7" height="7"/>
		</g>
		<g>
			<circle class="st8" cx="69" cy="17.8" r="11"/>
			<rect x="65.5" y="14.3" class="st4" width="7" height="7"/>
		</g>
		<g>
			<circle class="st8" cx="187.9" cy="17.8" r="11"/>
			<rect x="184.4" y="14.3" class="st4" width="7" height="7"/>
		</g>
		<g>
			<circle class="st8" cx="217.6" cy="17.8" r="11"/>
			<rect x="214.1" y="14.3" class="st4" width="7" height="7"/>
		</g>
		<g>
			<circle class="st8" cx="247.3" cy="17.8" r="11"/>
			<rect x="243.8" y="14.3" class="st4" width="7" height="7"/>
		</g>
		<g>
			<circle class="st8" cx="277" cy="17.8" r="11"/>
			<rect x="273.5" y="14.3" class="st4" width="7" height="7"/>
		</g>
		<g>
			<circle class="st8" cx="306.7" cy="17.8" r="11"/>
			<rect x="303.2" y="14.3" class="st4" width="7" height="7"/>
		</g>
		<g>
			<circle class="st8" cx="336.4" cy="17.8" r="11"/>
			<rect x="332.9" y="14.3" class="st4" width="7" height="7"/>
		</g>
		<g>
			<circle class="st8" cx="366.1" cy="17.8" r="11"/>
			<rect x="362.6" y="14.3" class="st4" width="7" height="7"/>
		</g>
		<g>
			<circle class="st8" cx="395.9" cy="17.8" r="11"/>
			<rect x="392.4" y="14.3" class="st4" width="7" height="7"/>
		</g>
		<g>
			<circle class="st8" cx="425.6" cy="17.8" r="11"/>
			<rect x="422.1" y="14.3" class="st4" width="7" height="7"/>
		</g>
		<g>
			<circle class="st8" cx="455.3" cy="17.8" r="11"/>
			<rect x="451.8" y="14.3" class="st4" width="7" height="7"/>
		</g>
		<g>
			<circle class="st8" cx="485" cy="17.8" r="11"/>
			<rect x="481.5" y="14.3" class="st4" width="7" height="7"/>
		</g>
	</g>
</g>
<g>
	<rect x="341" y="35" class="st5" width="12.6" height="30.5"/>
	<rect x="336.4" y="48" class="st4" width="4.6" height="4.6"/>
	<rect x="353.7" y="58.6" class="st4" width="4.6" height="3.2"/>
	<rect x="353.6" y="38.8" class="st4" width="4.6" height="3.2"/>
</g>
<g>
	<rect x="421.5" y="36" class="st5" width="12.6" height="30.5"/>
	<rect x="434.1" y="48.9" class="st4" width="4.6" height="4.6"/>
	<rect x="416.8" y="59.6" class="st4" width="4.6" height="3.2"/>
	<rect x="417" y="39.7" class="st4" width="4.6" height="3.2"/>
</g>
<path class="st0" d="M543,115.8h-14c-1.7,0-3-1.3-3-3V112c0-1.7,1.3-3,3-3h14c1.7,0,3,1.3,3,3v0.8C546,114.4,544.7,115.8,543,115.8z
	"/>
<path class="st0" d="M543,168.8h-14c-1.7,0-3-1.3-3-3V165c0-1.7,1.3-3,3-3h14c1.7,0,3,1.3,3,3v0.8C546,167.4,544.7,168.8,543,168.8z
	"/>
<rect x="497" y="115.8" class="st0" width="3.8" height="6.8"/>
<rect x="497" y="155.2" class="st0" width="3.8" height="6.8"/>
</svg>
