<?xml version="1.0" encoding="utf-8"?>
<!-- Generator: Adobe Illustrator 22.1.0, SVG Export Plug-In . SVG Version: 6.00 Build 0)  -->
<svg version="1.1" id="图层_1" xmlns="http://www.w3.org/2000/svg" xmlns:xlink="http://www.w3.org/1999/xlink" x="0px" y="0px"
	 viewBox="0 0 200 200" style="enable-background:new 0 0 200 200;" xml:space="preserve">
<style type="text/css">
	.st0{fill:#006FC5;}
	.st1{fill:#383838;}
</style>
<g>
	<path class="st0" d="M147.1,102.6c-3.2,10.8-9.9,21.3-16.8,28.8c5.5,6.9,8.8,15.7,8.8,25.3H59.6c0-8.9,2.9-17.2,7.8-23.9
		c-7.4-7.5-14.8-18.7-18.2-30.2c-6.4-21.6-2.8-56,5.9-58.6c8.7-2.6,22.9,27.4,29.4,49c2.4,8.2,4.3,16.9,5.1,24.6
		c3.1-0.8,6.4-1.2,9.8-1.2c2.5,0,5,0.2,7.4,0.7c0.9-7.6,2.7-16.1,5.1-24.1c6.4-21.6,20.7-51.6,29.4-49
		C149.9,46.6,153.5,81,147.1,102.6z"/>
	<path class="st1" d="M17.4,55.7c3.2,0,5.8-2.7,5.8-6.1c0-3.4-2.6-6.1-5.8-6.1H5.8c-1.5,0-3,0.7-4.1,1.8C0.5,46.4,0,47.9,0,49.5v101
		c0,1.6,0.6,3.2,1.7,4.4c1.1,1.2,2.6,1.8,4.1,1.8h11.6c3.2,0,5.8-2.7,5.8-6.1s-2.6-6.1-5.8-6.1h-5.8V55.7H17.4z M182.6,144.3
		c-2.1,0-4,1.1-5.1,3.1c-1,2-1,4.4,0,6.2c1,2,3,3.1,5.1,3.1h11.6c1.5,0,3-0.7,4.1-1.8c1.1-1.2,1.7-2.7,1.7-4.4V49.5
		c0-1.6-0.6-3.2-1.7-4.4c-1.1-1.2-2.6-1.8-4.1-1.8h-11.6c-3.2,0.1-5.7,2.8-5.7,6.1s2.6,6.1,5.7,6.1h5.8v88.6L182.6,144.3
		L182.6,144.3z"/>
</g>
</svg>
