<?xml version="1.0" encoding="utf-8"?>
<!-- Generator: Adobe Illustrator 22.1.0, SVG Export Plug-In . SVG Version: 6.00 Build 0)  -->
<svg version="1.1" id="图层_1" xmlns="http://www.w3.org/2000/svg" xmlns:xlink="http://www.w3.org/1999/xlink" x="0px" y="0px"
	 viewBox="0 0 150 150" style="enable-background:new 0 0 150 150;" xml:space="preserve">
<style type="text/css">
	.st0{fill:#A0A0A0;}
	.st1{fill:#FFFFFF;}
	.st2{fill:#FFA62B;}
	.st3{fill:#434B55;}
	.st4{fill:#353535;}
	.st5{fill:#ADADAD;}
	.st6{fill:#EFEBDB;}
	.st7{fill:#D7D7D7;}
	.st8{fill:#F1F1F1;}
	.st9{fill:#CDD0D3;}
</style>
<title>limitswitch</title>
<desc>Created with Sketch.</desc>
<g id="Page-1">
	<g id="limitswitch">
		<rect id="Rectangle-path" x="38.4" y="65.8" class="st0" width="73.3" height="12"/>
		<path id="Shape" class="st1" d="M53.7,103.4L53.7,103.4c0-1.3,1.1-2.4,2.4-2.4h8.4c1.3,0,2.4,1.1,2.4,2.4l0,0
			c0,1.3-1.1,2.4-2.4,2.4h-8.4C54.7,105.8,53.7,104.7,53.7,103.4z"/>
		<rect id="Rectangle-path_1_" x="56.1" y="100.9" class="st2" width="8.4" height="4.8"/>
		<path id="Shape_1_" class="st1" d="M86.6,115.6L86.6,115.6c0-1.3,1.1-2.4,2.4-2.4h8.4c1.3,0,2.4,1.1,2.4,2.4l0,0
			c0,1.3-1.1,2.4-2.4,2.4h-8.4C87.5,118,86.6,116.9,86.6,115.6z"/>
		<rect id="Rectangle-path_2_" x="88.9" y="113.2" class="st2" width="8.4" height="4.8"/>
		<path id="Shape_2_" class="st1" d="M53.7,115.6L53.7,115.6c0-1.3,1.1-2.4,2.4-2.4h8.4c1.3,0,2.4,1.1,2.4,2.4l0,0
			c0,1.3-1.1,2.4-2.4,2.4h-8.4C54.7,118,53.7,116.9,53.7,115.6z"/>
		<rect id="Rectangle-path_3_" x="56.1" y="113.2" class="st3" width="8.4" height="4.8"/>
		<path id="Shape_3_" class="st1" d="M86.6,127.5L86.6,127.5c0-1.3,1.1-2.4,2.4-2.4h8.4c1.3,0,2.4,1.1,2.4,2.4l0,0
			c0,1.3-1.1,2.4-2.4,2.4h-8.4C87.5,129.9,86.6,128.8,86.6,127.5z"/>
		<rect id="Rectangle-path_4_" x="88.9" y="125.1" class="st3" width="8.4" height="4.8"/>
		<path id="Shape_4_" class="st4" d="M38.4,42.7c-1,0-1.8-0.7-2.1-1.5c-0.3-1.1,0.4-2.2,1.5-2.5l73.3-18.8c1.1-0.3,2.2,0.4,2.5,1.5
			c0.3,1.1-0.4,2.2-1.5,2.5L38.8,42.7C38.6,42.7,38.5,42.7,38.4,42.7z"/>
		<path id="Shape_5_" class="st1" d="M53.7,127.5L53.7,127.5c0-1.3,1.1-2.4,2.4-2.4h8.4c1.3,0,2.4,1.1,2.4,2.4l0,0
			c0,1.3-1.1,2.4-2.4,2.4h-8.4C54.7,129.9,53.7,128.8,53.7,127.5z"/>
		<rect id="Rectangle-path_5_" x="56.1" y="125.1" class="st5" width="8.4" height="4.8"/>
		<ellipse id="Oval" class="st6" cx="47.1" cy="83.5" rx="4.5" ry="4.5"/>
		<g id="Group" transform="translate(44.357143, 72.200000)">
			<path id="Shape_6_" class="st1" d="M2.5,12.5c-0.8,0-1.5-0.7-1.5-1.5V2.1c0-0.8,0.7-1.5,1.5-1.5h0.6c0.8,0,1.5,0.7,1.5,1.5v8.8
				c0,0.8-0.7,1.5-1.5,1.5H2.5z"/>
			<path id="Shape_7_" class="st7" d="M3.1,1.1c0.6,0,1.1,0.6,1.1,1.1v8.8c0,0.6-0.6,1.1-1.1,1.1H2.5c-0.6,0-1.1-0.6-1.1-1.1V2.2
				c0-0.6,0.6-1.1,1.1-1.1H3.1L3.1,1.1z M3.1,0.4H2.5c-1,0-1.8,0.8-1.8,1.8v8.8c0,1,0.8,1.8,1.8,1.8h0.6c1,0,1.8-0.8,1.8-1.8V2.2
				C4.9,1.1,4,0.4,3.1,0.4L3.1,0.4z"/>
		</g>
		<ellipse id="Oval_1_" class="st6" cx="103.4" cy="83.5" rx="4.5" ry="4.5"/>
		<g id="Group_1_" transform="translate(100.071429, 72.200000)">
			<path id="Shape_8_" class="st1" d="M3.1,12.5c-0.8,0-1.5-0.7-1.5-1.5V2.1c0-0.8,0.7-1.5,1.5-1.5h0.6c0.8,0,1.5,0.7,1.5,1.5v8.8
				c0,0.8-0.7,1.5-1.5,1.5H3.1z"/>
			<path id="Shape_9_" class="st7" d="M3.6,1.1c0.6,0,1.1,0.6,1.1,1.1v8.8c0,0.6-0.6,1.1-1.1,1.1H3.1c-0.6,0-1.1-0.6-1.1-1.1V2.2
				c0-0.6,0.6-1.1,1.1-1.1H3.6L3.6,1.1z M3.6,0.4H3.1c-1,0-1.8,0.8-1.8,1.8v8.8c0,1,0.8,1.8,1.8,1.8h0.6c1,0,1.8-0.8,1.8-1.8V2.2
				C5.4,1.1,4.6,0.4,3.6,0.4L3.6,0.4z"/>
		</g>
		<ellipse id="Oval_2_" class="st6" cx="75" cy="83.5" rx="4.5" ry="4.5"/>
		<g id="Group_2_" transform="translate(72.214286, 72.200000)">
			<path id="Shape_10_" class="st1" d="M2.5,12.5c-0.8,0-1.5-0.7-1.5-1.5V2.1c0-0.8,0.7-1.5,1.5-1.5h0.6c0.8,0,1.5,0.7,1.5,1.5v8.8
				c0,0.8-0.7,1.5-1.5,1.5H2.5z"/>
			<path id="Shape_11_" class="st7" d="M3.1,1.1c0.6,0,1.1,0.6,1.1,1.1v8.8c0,0.6-0.6,1.1-1.1,1.1H2.5c-0.6,0-1.1-0.6-1.1-1.1V2.2
				c0-0.6,0.6-1.1,1.1-1.1H3.1L3.1,1.1z M3.1,0.4H2.5c-1,0-1.8,0.8-1.8,1.8v8.8c0,1,0.8,1.8,1.8,1.8h0.6c1,0,1.8-0.8,1.8-1.8V2.2
				C4.9,1.1,4,0.4,3.1,0.4L3.1,0.4z"/>
		</g>
		<rect id="Rectangle-path_6_" x="38.4" y="63.8" class="st8" width="73.3" height="12"/>
		<ellipse id="Oval_3_" class="st9" cx="58.1" cy="69.3" rx="4.9" ry="4.9"/>
		<ellipse id="Oval_4_" class="st9" cx="91.7" cy="69.3" rx="4.9" ry="4.9"/>
		<polygon id="Shape_12_" class="st3" points="111.6,38.2 38.4,38.2 38.4,63.7 64.4,63.7 64.4,74.2 85.6,74.2 85.6,63.7 111.6,63.7 
					"/>
	</g>
</g>
</svg>
