<?xml version="1.0" encoding="utf-8"?>
<!-- Generator: Adobe Illustrator 22.1.0, SVG Export Plug-In . SVG Version: 6.00 Build 0)  -->
<svg version="1.1" id="图层_1" xmlns="http://www.w3.org/2000/svg" xmlns:xlink="http://www.w3.org/1999/xlink" x="0px" y="0px"
	 viewBox="0 0 150 150" style="enable-background:new 0 0 150 150;" xml:space="preserve">
<style type="text/css">
	.st0{fill:#0C0C0C;}
	.st1{fill:#101010;}
	.st2{fill:#202020;}
	.st3{fill:#303030;}
	.st4{fill:#404040;}
	.st5{fill:#515151;}
	.st6{fill:#353535;}
	.st7{fill:#222426;}
	.st8{opacity:0.2;fill:none;stroke:#FFFFFF;stroke-width:0.55;enable-background:new    ;}
	.st9{fill:#B3B3B3;}
	.st10{fill:#999999;}
	.st11{fill:#96969F;}
</style>
<title>potentiometer</title>
<desc>Created with Sketch.</desc>
<g id="Page-1">
	<g id="potentiometer">
		<g id="Group" transform="translate(63.470588, 16.000000)">
			<polygon id="Shape" class="st0" points="3.5,1.3 0.5,4.5 23.1,4.5 19.8,1.3 			"/>
			<rect id="Rectangle-path" x="22.7" y="4.5" width="1" height="25.3"/>
			<rect id="Rectangle-path_1_" x="21.6" y="4.5" width="1" height="25.3"/>
			<polygon id="Shape_1_" class="st1" points="22.1,29.7 22.7,29.7 22.7,4.5 20.4,2 22.1,4.5 			"/>
			<polygon id="Shape_2_" class="st2" points="19.3,2 20.4,4.5 20.4,29.7 21.6,29.7 21.6,4.5 			"/>
			<rect id="Rectangle-path_2_" x="19.8" y="4.5" width="1" height="25.3"/>
			<rect id="Rectangle-path_3_" x="17.3" y="4.5" width="1" height="25.3"/>
			<polygon id="Shape_3_" class="st3" points="17.6,2 18.3,4.5 18.3,29.7 19.8,29.7 19.8,4.5 			"/>
			<polygon id="Shape_4_" class="st4" points="15.6,2 15.6,4.5 15.6,29.7 17.3,29.7 17.3,4.5 			"/>
			<rect id="Rectangle-path_4_" x="14.7" y="4.5" width="1.2" height="25.3"/>
			<rect id="Rectangle-path_5_" x="11.5" y="4.5" width="1.2" height="25.3"/>
			<polygon id="Shape_5_" class="st5" points="13.3,2 12.7,4.5 12.7,29.7 14.7,29.7 14.7,4.5 			"/>
			<polygon id="Shape_6_" class="st5" points="10.9,2 9.6,4.5 9.6,29.7 11.5,29.7 11.5,4.5 			"/>
			<rect id="Rectangle-path_6_" x="8.6" y="4.5" width="1.2" height="25.3"/>
			<rect id="Rectangle-path_7_" x="5.9" y="4.5" width="1" height="25.3"/>
			<polygon id="Shape_7_" class="st4" points="8.6,2 6.8,4.5 6.8,29.7 8.6,29.7 8.6,4.5 			"/>
			<polygon id="Shape_8_" class="st3" points="6.4,2 4.4,4.5 4.4,29.7 5.9,29.7 5.9,4.5 			"/>
			<rect id="Rectangle-path_8_" x="3.6" y="4.5" width="1" height="25.3"/>
			<rect id="Rectangle-path_9_" x="1.8" y="4.5" width="1" height="25.3"/>
			<polygon id="Shape_9_" class="st2" points="4.8,2 2.5,4.5 2.5,29.7 3.6,29.7 3.6,4.5 			"/>
			<polygon id="Shape_10_" class="st1" points="3.5,2 1.2,4.5 1.2,29.7 1.8,29.7 1.8,4.5 			"/>
			<rect id="Rectangle-path_10_" x="0.8" y="4.5" width="1" height="25.3"/>
			<rect id="Rectangle-path_11_" x="0.5" y="4.5" class="st5" width="1" height="25.3"/>
		</g>
		<rect id="Rectangle-path_12_" x="64" y="45.7" width="22.6" height="52.5"/>
		<rect id="Rectangle-path_13_" x="65.6" y="45.7" class="st2" width="19.1" height="52.5"/>
		<rect id="Rectangle-path_14_" x="72.4" y="45.7" class="st6" width="8.6" height="52.5"/>
		<rect id="Rectangle-path_15_" x="75.5" y="45.7" class="st5" width="2.5" height="52.5"/>
		<rect id="Rectangle-path_16_" x="74.2" y="17.3" class="st0" width="2.6" height="14.8"/>
		<rect id="Rectangle-path_17_" x="48.3" y="98.3" class="st7" width="54" height="23.8"/>
		<rect id="Rectangle-path_18_" x="67.3" y="98.3" width="16" height="7.3"/>
		<path id="Shape_11_" class="st8" d="M67.4,106.4h15.6"/>
		<rect id="Rectangle-path_19_" x="62.5" y="95.4" class="st9" width="25.5" height="1.5"/>
		<rect id="Rectangle-path_20_" x="48.3" y="97.1" class="st10" width="54" height="1.2"/>
		<rect id="Rectangle-path_21_" x="53.4" y="96.4" width="3" height="1.2"/>
		<rect id="Rectangle-path_22_" x="94.1" y="96.4" width="3" height="1.2"/>
		<rect id="Rectangle-path_23_" x="92.6" y="113.9" class="st11" width="6.1" height="19.8"/>
		<rect id="Rectangle-path_24_" x="72.2" y="113.9" class="st11" width="6.1" height="19.8"/>
		<rect id="Rectangle-path_25_" x="51.9" y="113.9" class="st11" width="6.1" height="19.8"/>
	</g>
</g>
</svg>
