<?xml version="1.0" encoding="utf-8"?>
<!-- Generator: Adobe Illustrator 22.1.0, SVG Export Plug-In . SVG Version: 6.00 Build 0)  -->
<svg version="1.1" id="图层_1" xmlns="http://www.w3.org/2000/svg" xmlns:xlink="http://www.w3.org/1999/xlink" x="0px" y="0px"
	 viewBox="0 0 150 150" style="enable-background:new 0 0 150 150;" xml:space="preserve">
<style type="text/css">
	.st0{fill:#00979D;}
	.st1{fill:#DFDFE9;}
	.st2{filter:url(#filter-2);}
	.st3{fill:#D7D7E0;}
	.st4{fill:#FFFFFF;}
	.st5{font-family:'MicrosoftSansSerif';}
	.st6{font-size:11px;}
</style>
<filter  filterUnits="objectBoundingBox" height="106.2%" id="filter-2" width="106.2%" x="-3.1%" y="-3.1%">
	<feGaussianBlur  in="SourceAlpha" result="shadowBlurInner1" stdDeviation="1.5"></feGaussianBlur>
	<feOffset  dx="0" dy="0" in="shadowBlurInner1" result="shadowOffsetInner1"></feOffset>
	<feComposite  in="shadowOffsetInner1" in2="SourceAlpha" k2="-1" k3="1" operator="arithmetic" result="shadowInnerInner1">
		</feComposite>
	<feColorMatrix  in="shadowInnerInner1" type="matrix" values="0 0 0 0 0   0 0 0 0 0   0 0 0 0 0  0 0 0 0.303158967 0">
		</feColorMatrix>
</filter>
<title>touchSensor</title>
<desc>Created with Sketch.</desc>
<g id="Page-1">
	<g id="touchSensor">
		<path id="Rectangle-4" class="st0" d="M41,23h68c3.3,0,6,2.7,6,6v92c0,3.3-2.7,6-6,6H41c-3.3,0-6-2.7-6-6V29
			C35,25.7,37.7,23,41,23z"/>
		<g id="Oval-4">
			<g>
				<circle id="path-1" class="st1" cx="75" cy="60" r="24"/>
			</g>
			<g class="st2">
				<circle id="path-1_2_" cx="75" cy="60" r="24"/>
			</g>
		</g>
		<circle id="Oval-4-Copy" class="st3" cx="75" cy="60" r="19"/>
		<circle id="Oval" class="st1" cx="75" cy="60" r="15"/>
		<circle id="Oval-Copy" class="st3" cx="75" cy="60" r="10"/>
		<text transform="matrix(1 0 0 1 54 114)" class="st4 st5 st6">TOUC</text>
		<text transform="matrix(1 0 0 1 89.1631 114)" class="st4 st5 st6"> </text>
		<text transform="matrix(1 0 0 1 88.3091 114)" class="st4 st5 st6">H</text>
	</g>
</g>
</svg>
