<?xml version="1.0" encoding="utf-8"?>
<!-- Generator: Adobe Illustrator 22.1.0, SVG Export Plug-In . SVG Version: 6.00 Build 0)  -->
<svg version="1.1" id="图层_1" xmlns="http://www.w3.org/2000/svg" xmlns:xlink="http://www.w3.org/1999/xlink" x="0px" y="0px"
	 viewBox="0 0 150 150" style="enable-background:new 0 0 150 150;" xml:space="preserve">
<style type="text/css">
	.st0{fill:none;stroke:#7A7C80;stroke-width:2.5015;}
	.st1{fill:none;stroke:#FC3D3D;stroke-width:2.5015;}
	.st2{fill:#252830;}
	.st3{fill:#0D0D0D;}
	.st4{fill:#D7D8D9;}
	.st5{fill:none;stroke:#3E4145;stroke-width:1.5487;stroke-linecap:round;stroke-linejoin:round;}
	.st6{fill:none;stroke:#3F3F41;stroke-width:0.5;stroke-linecap:round;stroke-linejoin:round;}
	.st7{fill:none;stroke:#303032;stroke-width:1.5487;stroke-linecap:round;stroke-linejoin:round;}
</style>
<title>buzzer</title>
<desc>Created with Sketch.</desc>
<g id="Page-1">
	<g id="buzzer">
		<path id="Shape" class="st0" d="M69.7,102.7v26.5"/>
		<path id="Shape_1_" class="st1" d="M81,102.7c0,0,0,20.1,0,26.5"/>
		<path id="Shape_2_" class="st2" d="M20.5,56.6c-2.6,0.7-5.7,4.3-5.7,8.1s2.6,7.4,5.7,8.1c2.9,0.7,15.8,4.1,15.8,4.1V52.5
			L20.5,56.6z M23.3,67.8c-1.7,0-3.1-1.4-3.1-3.1s1.4-3.1,3.1-3.1c1.7,0,3.1,1.4,3.1,3.1S25,67.8,23.3,67.8z"/>
		<path id="Shape_3_" class="st2" d="M130,56.6c-2.9-0.7-15.8-4.1-15.8-4.1v24.4l15.8-4.1c2.6-0.7,5.7-4.3,5.7-8.1
			S133.1,57.3,130,56.6z M127.4,67.8c-1.7,0-3.1-1.4-3.1-3.1s1.4-3.1,3.1-3.1c1.7,0,3.1,1.4,3.1,3.1S129.1,67.8,127.4,67.8z"/>
		<ellipse id="Oval" class="st3" cx="75.2" cy="64.7" rx="43.8" ry="43.8"/>
		<ellipse id="Oval_1_" class="st2" cx="75.2" cy="64.7" rx="43.8" ry="43.8"/>
		<ellipse id="Oval_2_" class="st4" cx="75.2" cy="64.7" rx="7.4" ry="7.4"/>
		<path id="Shape_4_" class="st5" d="M34.1,72.4c-1.9-10.5,0-22,6.7-31.6C53.9,21.7,80,16.9,99.2,30"/>
		<g id="Group" transform="translate(42.705882, 31.956522)">
			<path id="Shape_5_" class="st6" d="M55.5,55.7C68.2,43,68.2,22.5,55.5,10C42.8-2.6,22.2-2.6,9.8,10c-12.7,12.7-12.7,33.2,0,45.7
				C22.2,68.4,42.8,68.4,55.5,55.7z"/>
			<path id="Shape_6_" class="st6" d="M12.2,53.1C1,41.8,1,23.7,12.2,12.4s29.4-11.2,40.7,0s11.2,29.4,0,40.7S23.4,64.3,12.2,53.1z"
				/>
			<ellipse id="Oval_3_" class="st6" cx="32.5" cy="32.8" rx="25.1" ry="25.1"/>
			<path id="Shape_7_" class="st6" d="M17.2,48.1c-8.4-8.4-8.4-22,0-30.6c8.4-8.4,22-8.4,30.6,0s8.4,22,0,30.6
				C39.5,56.4,25.8,56.4,17.2,48.1z"/>
			<ellipse id="Oval_4_" class="st6" cx="32.5" cy="32.8" rx="17.9" ry="17.9"/>
			<path id="Shape_8_" class="st6" d="M22.5,43c-5.7-5.7-5.7-14.8,0-20.3c5.7-5.7,14.8-5.7,20.3,0c5.7,5.7,5.7,14.8,0,20.3
				S28,48.5,22.5,43z"/>
		</g>
		<path id="Shape_9_" class="st7" d="M57.8,102.7c21.1,9.6,45.9,0.5,55.5-20.6c5.3-11.5,5-24.2,0-34.7"/>
	</g>
</g>
</svg>
