<?xml version="1.0" encoding="utf-8"?>
<!-- Generator: Adobe Illustrator 22.1.0, SVG Export Plug-In . SVG Version: 6.00 Build 0)  -->
<svg version="1.1" id="图层_1" xmlns="http://www.w3.org/2000/svg" xmlns:xlink="http://www.w3.org/1999/xlink" x="0px" y="0px"
	 viewBox="0 0 150 150" style="enable-background:new 0 0 150 150;" xml:space="preserve">
<style type="text/css">
	.st0{fill:url(#Shape_19_);}
	.st1{fill:url(#Shape_20_);}
	.st2{fill:url(#Shape_21_);}
	.st3{fill:url(#Shape_22_);}
	.st4{fill:url(#Shape_23_);}
	.st5{fill:url(#Shape_24_);}
	.st6{fill:url(#Shape_25_);}
	.st7{fill:url(#Shape_26_);}
	.st8{fill:url(#Shape_27_);}
	.st9{fill:url(#Shape_28_);}
	.st10{fill:url(#Shape_29_);}
	.st11{fill:url(#Shape_30_);}
	.st12{fill:url(#Shape_31_);}
	.st13{fill:url(#Shape_32_);}
	.st14{fill:url(#Shape_33_);}
	.st15{fill:url(#Shape_34_);}
	.st16{fill:url(#Shape_35_);}
	.st17{fill:url(#Shape_36_);}
	.st18{fill:url(#Oval_4_);}
	.st19{fill:url(#Oval_5_);}
	.st20{fill:url(#Oval_6_);}
	.st21{fill:url(#Oval_7_);}
	.st22{fill:#383838;}
</style>
<title>sound</title>
<desc>Created with Sketch.</desc>
<g id="Page-1">
	<g id="sound">
		<g id="svg2" transform="translate(52.000000, 24.000000)">
			<g>
				
					<linearGradient id="Shape_19_" gradientUnits="userSpaceOnUse" x1="-75.4664" y1="150.839" x2="-74.4664" y2="150.839" gradientTransform="matrix(44.9778 0 0 -36.3068 3394.5154 5495.0449)">
					<stop  offset="1.215721e-03" style="stop-color:#6B7486"/>
					<stop  offset="0.5072" style="stop-color:#CFD9DE"/>
					<stop  offset="1" style="stop-color:#687B96"/>
				</linearGradient>
				<path id="Shape" class="st0" d="M45.2,4.7c0,0,0-4.3-22.5-4.3S0.2,4.7,0.2,4.7v32c0,0,0-4.3,22.5-4.3s22.5,4.3,22.5,4.3V4.7
					L45.2,4.7z"/>
				
					<linearGradient id="Shape_20_" gradientUnits="userSpaceOnUse" x1="-74.9652" y1="146.5387" x2="-74.9652" y2="145.5309" gradientTransform="matrix(44.8756 0 0 -4.3977 3386.7468 676.7728)">
					<stop  offset="0" style="stop-color:#95A5AC"/>
					<stop  offset="0.9977" style="stop-color:#42426A"/>
				</linearGradient>
				<path id="Shape_1_" class="st1" d="M45.1,36.7c0-2.5-8.2-4.4-22.4-4.4c-22.5,0-22.5,4.4-22.5,4.4H45.1L45.1,36.7z"/>
				<g id="Group" transform="translate(33.733333, 64.431818)">
					
						<linearGradient id="Shape_21_" gradientUnits="userSpaceOnUse" x1="-106.3701" y1="81.8464" x2="-106.3701" y2="80.8251" gradientTransform="matrix(8.3822 0 0 -4.1932 895.9114 348.0984)">
						<stop  offset="0" style="stop-color:#B8B8B8"/>
						<stop  offset="1" style="stop-color:#6E6E6E"/>
					</linearGradient>
					<polygon id="Shape_2_" class="st2" points="0.1,9.1 4.3,4.9 8.5,9.1 					"/>
					
						<linearGradient id="Shape_22_" gradientUnits="userSpaceOnUse" x1="-106.3701" y1="80.9827" x2="-106.3701" y2="81.9797" gradientTransform="matrix(8.3822 0 0 -4.2955 895.9114 352.7588)">
						<stop  offset="0" style="stop-color:#B8B8B8"/>
						<stop  offset="1" style="stop-color:#6E6E6E"/>
					</linearGradient>
					<polygon id="Shape_3_" class="st3" points="0.1,0.6 4.3,4.9 8.5,0.6 					"/>
					
						<linearGradient id="Shape_23_" gradientUnits="userSpaceOnUse" x1="-104.0035" y1="84.2409" x2="-103.0035" y2="84.2409" gradientTransform="matrix(4.1911 0 0 -8.4886 440.1979 719.9482)">
						<stop  offset="0" style="stop-color:#B8B8B8"/>
						<stop  offset="1" style="stop-color:#6E6E6E"/>
					</linearGradient>
					<polygon id="Shape_4_" class="st4" points="8.5,0.6 4.3,4.9 8.5,9.1 					"/>
					
						<linearGradient id="Shape_24_" gradientUnits="userSpaceOnUse" x1="-102.9984" y1="84.2409" x2="-103.9984" y2="84.2409" gradientTransform="matrix(4.1911 0 0 -8.4886 436.0068 719.9482)">
						<stop  offset="0" style="stop-color:#B8B8B8"/>
						<stop  offset="1" style="stop-color:#6E6E6E"/>
					</linearGradient>
					<polygon id="Shape_5_" class="st5" points="0.1,0.6 4.3,4.9 0.1,9.1 					"/>
				</g>
				<g id="Group_1_" transform="translate(33.733333, 80.795455)">
					
						<linearGradient id="Shape_25_" gradientUnits="userSpaceOnUse" x1="-106.3701" y1="65.6012" x2="-106.3701" y2="64.6041" gradientTransform="matrix(8.3822 0 0 -4.2955 895.9114 286.5604)">
						<stop  offset="0" style="stop-color:#B8B8B8"/>
						<stop  offset="1" style="stop-color:#6E6E6E"/>
					</linearGradient>
					<polygon id="Shape_6_" class="st6" points="0.1,9 4.3,4.7 8.5,9 					"/>
					
						<linearGradient id="Shape_26_" gradientUnits="userSpaceOnUse" x1="-106.3701" y1="64.4645" x2="-106.3701" y2="65.4858" gradientTransform="matrix(8.3822 0 0 -4.1932 895.9114 275.085)">
						<stop  offset="0" style="stop-color:#B8B8B8"/>
						<stop  offset="1" style="stop-color:#6E6E6E"/>
					</linearGradient>
					<polygon id="Shape_7_" class="st7" points="0.1,0.5 4.3,4.7 8.5,0.5 					"/>
					
						<linearGradient id="Shape_27_" gradientUnits="userSpaceOnUse" x1="-104.0035" y1="67.8772" x2="-103.0035" y2="67.8772" gradientTransform="matrix(4.1911 0 0 -8.4886 440.1979 580.9408)">
						<stop  offset="0" style="stop-color:#B8B8B8"/>
						<stop  offset="1" style="stop-color:#6E6E6E"/>
					</linearGradient>
					<polygon id="Shape_8_" class="st8" points="8.5,0.5 4.3,4.7 8.5,9 					"/>
					
						<linearGradient id="Shape_28_" gradientUnits="userSpaceOnUse" x1="-102.9984" y1="67.8772" x2="-103.9984" y2="67.8772" gradientTransform="matrix(4.1911 0 0 -8.4886 436.0068 580.9408)">
						<stop  offset="0" style="stop-color:#B8B8B8"/>
						<stop  offset="1" style="stop-color:#6E6E6E"/>
					</linearGradient>
					<polygon id="Shape_9_" class="st9" points="0.1,0.5 4.3,4.7 0.1,9 					"/>
				</g>
				<g id="Group_2_" transform="translate(26.577778, 43.977273)">
					
						<linearGradient id="Shape_29_" gradientUnits="userSpaceOnUse" x1="-99.1792" y1="102.4354" x2="-99.1792" y2="101.4384" gradientTransform="matrix(8.28 0 0 -4.2955 825.4462 444.3022)">
						<stop  offset="0" style="stop-color:#B8B8B8"/>
						<stop  offset="1" style="stop-color:#6E6E6E"/>
					</linearGradient>
					<polygon id="Shape_10_" class="st10" points="0.1,8.6 4.3,4.3 8.4,8.6 					"/>
					
						<linearGradient id="Shape_30_" gradientUnits="userSpaceOnUse" x1="-99.1792" y1="101.4354" x2="-99.1792" y2="102.4324" gradientTransform="matrix(8.28 0 0 -4.2955 825.4462 440.0067)">
						<stop  offset="0" style="stop-color:#B8B8B8"/>
						<stop  offset="1" style="stop-color:#6E6E6E"/>
					</linearGradient>
					<polygon id="Shape_11_" class="st11" points="0.1,0 4.3,4.3 8.4,0 					"/>
					
						<linearGradient id="Shape_31_" gradientUnits="userSpaceOnUse" x1="-96.8632" y1="104.7291" x2="-95.8622" y2="104.7291" gradientTransform="matrix(4.1911 0 0 -8.5909 410.2082 904.0134)">
						<stop  offset="0" style="stop-color:#B8B8B8"/>
						<stop  offset="1" style="stop-color:#6E6E6E"/>
					</linearGradient>
					<polygon id="Shape_12_" class="st12" points="8.5,0 4.3,4.3 8.5,8.6 					"/>
					
						<linearGradient id="Shape_32_" gradientUnits="userSpaceOnUse" x1="-95.8581" y1="104.7291" x2="-96.8591" y2="104.7291" gradientTransform="matrix(4.1911 0 0 -8.5909 406.0171 904.0134)">
						<stop  offset="0" style="stop-color:#B8B8B8"/>
						<stop  offset="1" style="stop-color:#6E6E6E"/>
					</linearGradient>
					<polygon id="Shape_13_" class="st13" points="0.1,0 4.3,4.3 0.1,8.6 					"/>
				</g>
				<g id="Group_3_" transform="translate(10.222222, 43.977273)">
					
						<linearGradient id="Shape_33_" gradientUnits="userSpaceOnUse" x1="-82.859" y1="102.4354" x2="-82.859" y2="101.4384" gradientTransform="matrix(8.3822 0 0 -4.2955 698.8361 444.3022)">
						<stop  offset="0" style="stop-color:#B8B8B8"/>
						<stop  offset="1" style="stop-color:#6E6E6E"/>
					</linearGradient>
					<polygon id="Shape_14_" class="st14" points="0.1,8.6 4.3,4.3 8.5,8.6 					"/>
					
						<linearGradient id="Shape_34_" gradientUnits="userSpaceOnUse" x1="-82.859" y1="101.4354" x2="-82.859" y2="102.4324" gradientTransform="matrix(8.3822 0 0 -4.2955 698.8361 440.0067)">
						<stop  offset="0" style="stop-color:#B8B8B8"/>
						<stop  offset="1" style="stop-color:#6E6E6E"/>
					</linearGradient>
					<polygon id="Shape_15_" class="st15" points="0.1,0 4.3,4.3 8.5,0 					"/>
					
						<linearGradient id="Shape_35_" gradientUnits="userSpaceOnUse" x1="-80.4924" y1="104.7291" x2="-79.4914" y2="104.7291" gradientTransform="matrix(4.1911 0 0 -8.5909 341.6602 904.0134)">
						<stop  offset="0" style="stop-color:#B8B8B8"/>
						<stop  offset="1" style="stop-color:#6E6E6E"/>
					</linearGradient>
					<polygon id="Shape_16_" class="st16" points="8.5,0 4.3,4.3 8.5,8.6 					"/>
					
						<linearGradient id="Shape_36_" gradientUnits="userSpaceOnUse" x1="-79.4873" y1="104.7291" x2="-80.4883" y2="104.7291" gradientTransform="matrix(4.1911 0 0 -8.5909 337.4691 904.0134)">
						<stop  offset="0" style="stop-color:#B8B8B8"/>
						<stop  offset="1" style="stop-color:#6E6E6E"/>
					</linearGradient>
					<polygon id="Shape_17_" class="st17" points="0.1,0 4.3,4.3 0.1,8.6 					"/>
				</g>
				
					<radialGradient id="Oval_4_" cx="-72.49" cy="148.4829" r="0.4964" gradientTransform="matrix(7.9733 0 0 -7.9733 600.68 1246.1416)" gradientUnits="userSpaceOnUse">
					<stop  offset="0" style="stop-color:#B8B8B8"/>
					<stop  offset="1" style="stop-color:#6E6E6E"/>
				</radialGradient>
				<ellipse id="Oval" class="st18" cx="22.7" cy="62.2" rx="4" ry="4"/>
				
					<radialGradient id="Oval_5_" cx="-72.4844" cy="148.49" r="0.4965" gradientTransform="matrix(7.9733 0 0 -7.9733 585.5511 1254.1189)" gradientUnits="userSpaceOnUse">
					<stop  offset="0" style="stop-color:#B8B8B8"/>
					<stop  offset="1" style="stop-color:#6E6E6E"/>
				</radialGradient>
				<ellipse id="Oval_1_" class="st19" cx="7.6" cy="70.2" rx="4" ry="4"/>
				
					<radialGradient id="Oval_6_" cx="-72.4844" cy="148.4797" r="0.4968" gradientTransform="matrix(7.9733 0 0 -7.9733 585.5511 1269.7666)" gradientUnits="userSpaceOnUse">
					<stop  offset="0" style="stop-color:#B8B8B8"/>
					<stop  offset="1" style="stop-color:#6E6E6E"/>
				</radialGradient>
				<ellipse id="Oval_2_" class="st20" cx="7.6" cy="85.8" rx="4" ry="4"/>
				
					<radialGradient id="Oval_7_" cx="-72.49" cy="148.4797" r="0.4964" gradientTransform="matrix(7.9733 0 0 -7.9733 600.68 1269.7666)" gradientUnits="userSpaceOnUse">
					<stop  offset="0" style="stop-color:#B8B8B8"/>
					<stop  offset="1" style="stop-color:#6E6E6E"/>
				</radialGradient>
				<ellipse id="Oval_3_" class="st21" cx="22.7" cy="85.8" rx="4" ry="4"/>
				<path id="Shape_18_" class="st22" d="M45.2,4.9c0-0.1,0-0.5-0.4-1c-1.1-1.3-5.5-3.5-22.1-3.5C7,0.4,1.9,2.2,0.6,3.8
					c-0.4,0.5-0.4,0.9-0.4,1v1.6l0.7-0.6c0,0,0.6-0.5,0.7-0.5c0,0,5.1-2.9,21.2-2.9c15.2,0,19.6,1.7,21,2.8c0,0,0.6,0.4,0.7,0.4
					l0.9,0.7C45.2,6.3,45.2,5.1,45.2,4.9L45.2,4.9z"/>
			</g>
		</g>
	</g>
</g>
</svg>
