<?xml version="1.0" encoding="utf-8"?>
<!-- Generator: Adobe Illustrator 22.0.1, SVG Export Plug-In . SVG Version: 6.00 Build 0)  -->
<svg version="1.1" xmlns="http://www.w3.org/2000/svg" xmlns:xlink="http://www.w3.org/1999/xlink" x="0px" y="0px"
	 viewBox="0 0 150 150" style="enable-background:new 0 0 150 150;" xml:space="preserve">
<style type="text/css">
	.st0{fill:url(#SVGID_1_);}
	.st1{fill:url(#SVGID_2_);}
	.st2{fill:#404041;}
</style>
<g id="图层_1">
</g>
<g id="图层_2">
</g>
<g id="图层_3">
	<g>
		<radialGradient id="SVGID_1_" cx="76.1519" cy="111.0794" r="58.0792" gradientUnits="userSpaceOnUse">
			<stop  offset="0" style="stop-color:#404040;stop-opacity:0.8"/>
			<stop  offset="0.7351" style="stop-color:#404040;stop-opacity:0.9271"/>
			<stop  offset="1" style="stop-color:#404040;stop-opacity:0.95"/>
		</radialGradient>
		<path class="st0" d="M125,111.4L25.6,111c0-17.4,12.6-31.8,33.6-36.9v0h32.2V74C112.7,79,125,93.8,125,111.4z"/>
		<linearGradient id="SVGID_2_" gradientUnits="userSpaceOnUse" x1="59.1416" y1="64.1113" x2="91.3685" y2="64.1113">
			<stop  offset="0" style="stop-color:#404040"/>
			<stop  offset="0.5223" style="stop-color:#404040;stop-opacity:0.8"/>
			<stop  offset="1" style="stop-color:#404040"/>
		</linearGradient>
		<rect x="59.1" y="54" class="st1" width="32.2" height="20.2"/>
		<path class="st2" d="M105.2,50.4c0,0.5,0,2,0,2.7c0,0.5,0,0.5-0.2,1.1H44.9c-0.2-0.5-0.2-1.9-0.1-2.5c0-0.5,0-0.8,0.1-1.3
			c0-0.7,0.4-1.5,0.6-2c0.2-0.4,0.9-1.3,1.3-1.6c4.1-3.6,13.8-8.1,28.2-8.1c13.4,0,24.8,4.4,29.1,8.9c0.5,0.5,0.7,1.1,0.9,1.5
			C105.1,49.5,105.1,49.6,105.2,50.4z"/>
	</g>
</g>
</svg>
