<?xml version="1.0" encoding="utf-8"?>
<!-- Generator: Adobe Illustrator 22.1.0, SVG Export Plug-In . SVG Version: 6.00 Build 0)  -->
<svg version="1.1" id="图层_1" xmlns="http://www.w3.org/2000/svg" xmlns:xlink="http://www.w3.org/1999/xlink" x="0px" y="0px"
	 viewBox="0 0 150 150" style="enable-background:new 0 0 150 150;" xml:space="preserve">
<style type="text/css">
	.st0{fill:#9EA5AD;}
	.st1{fill:#384149;}
	.st2{fill:#434D54;}
	.st3{fill:#BAC1CC;}
	.st4{fill:#E55555;}
	.st5{fill:#818791;}
	.st6{opacity:0.3;fill:#7E8184;enable-background:new    ;}
	.st7{opacity:0.7986;fill:#FFFFFF;enable-background:new    ;}
</style>
<title>lightSensor</title>
<desc>Created with Sketch.</desc>
<g id="Page-1">
	<g id="lightSensor">
		<path id="path3011" class="st0" d="M121.8,107V78.2c0-1.8-0.4-2.4-0.8-2.8l0,0c-0.4-0.4-1-0.8-3.1-0.8l0,0H31.3
			c-1.2,0-1.8,0.2-2.2,0.2l0,0c-0.2,0-0.2,0.2-0.2,0l0,0c0,0,0,0-0.2,0.2l0,0c0,0.4-0.2,1-0.2,1.8l0,0v29.8l0,0H18V76.8
			c0-3.4,0.8-6.9,3.5-9.5l0,0c2.7-2.6,6.3-3.2,9.8-3.2l0,0h86.7c3.9,0,7.7,1.2,10.4,3.9l0,0c2.7,2.6,3.9,6.5,3.7,9.9l0,0v28.8
			L121.8,107L121.8,107z"/>
		<path id="path3013" class="st1" d="M41,70.5C41,81,45.7,90.4,52.8,97h46.3c7.3-6.4,11.8-15.8,11.8-26.5c0-10.5-4.7-19.9-11.8-26.5
			H52.8C45.7,50.4,41,59.8,41,70.5z"/>
		<rect id="rect3015" x="52" y="44" class="st2" width="47" height="53"/>
		<path id="path3017" class="st3" d="M99,92c0,0-11.1,1-23,1s-23-1-23-1s-1-11.1-1-23s1-23,1-23s11.1-1,23-1s23,1,23,1s1,11.1,1,23
			C100,80.7,99,92,99,92z"/>
		<path id="path3019" class="st4" d="M95,49.6l-0.2-0.8L94,48.6c0,0-9.2-1.6-19.4-1.6c-5.2,0-10.2,0.4-13.4,0.8
			c-3.2,0.4-5,0.6-5.8,0.8c-0.2,0-0.4,0-0.6,0.2s-0.4,0.4-0.4,0.6c-0.2,0.8-0.6,2.6-0.8,6c-0.2,2.6-0.6,7.6-0.6,13.5
			c0,10,1.6,19.3,1.6,19.5l0.2,0.8l0.8,0.2c0,0,9.2,1.6,19.4,1.6c10,0,19.2-1.6,19.4-1.6l0.8-0.2l0.2-0.8c0,0,1.6-9.2,1.6-19.5
			S95,49.6,95,49.6z M56.6,87.2c-0.4-2.4-1.4-10-1.4-18.1c0-8.4,0.8-16.1,1.2-18.1c0.8-0.2,2.4-0.4,4.6-0.6c0,0.2,0,0.4,0,0.6
			c0,1.4,0.8,3.8,1,4.2c0.2,0.6,0.8,0.8,1.4,0.8c0,0,5.4-1.2,11.4-1.2c5.6,0,10.6,1,11.2,1c0,0,0,0,0,0.2c0,0.4-0.2,1.2-0.4,2
			c-1.4-0.2-3.8-0.6-6.8-0.6c-4.2,0-8.2,0.8-8.4,0.8c-0.4,0-0.6,0.2-0.8,0.6c0,0.2-0.4,1-0.4,2.4c0,1.4,0.4,3.2,0.4,3.2
			c0,0.4,0.2,0.6,0.6,0.8c0.2,0.2,0.6,0.2,1,0.2c0,0,1.8-0.4,3.8-0.4c1.2,0,2.4,0.2,3,0.2c0,0.4,0.2,0.6,0.2,1.2c0,0.4,0,1-0.2,1.4
			h-3h-4c-0.6,0-1,0.4-1.2,1c0,0-0.4,1.4-0.4,2.8c0,1.4,0.4,2.4,0.4,2.6c0.2,0.4,0.4,0.8,1,0.8c0,0,2,0.4,4.2,0.4c1.2,0,2.2,0,3-0.2
			c0,0.6,0.2,1,0.2,1.6c0,0.4,0,0.6,0,0.8c-1.4,0.2-4.2,0.6-7.2,0.6c-4,0-7.2-0.8-7.2-0.8c-0.4-0.2-1,0-1.2,0.4
			c-0.2,0.2-1.2,1.6-1.2,3.2s1,3,1.2,3.2c0.2,0.2,0.4,0.4,0.8,0.4c0.2,0,5.6,1.2,11.8,1.2c4.6,0,8.8-0.6,10.8-1
			c0.2,0.8,0.6,1.8,0.6,2.4c0,0.4-0.2,0.6-0.2,0.8c-3.2,0.2-7,0.6-11,0.6C66.6,88.6,59,87.6,56.6,87.2z M92.6,87.2
			c-0.8,0.2-2.4,0.4-4.4,0.6c0-0.2,0-0.4,0-0.6c0-1.4-0.8-3.8-1-4.2c-0.2-0.6-0.8-0.8-1.4-0.8c0,0-5.4,1.2-11.4,1.2
			c-5,0-9.4-0.8-10.8-1c-0.2-0.4-0.4-0.8-0.4-1.2s0.2-0.8,0.2-1c1.2,0.2,3.8,0.6,6.8,0.6c4.2,0,8.2-0.8,8.4-0.8
			c0.4,0,0.6-0.2,0.8-0.6c0-0.2,0.4-1,0.4-2.4s-0.4-3.2-0.4-3.2c0-0.4-0.2-0.6-0.6-0.8c-0.2-0.2-0.6-0.2-1-0.2c0,0-1.8,0.4-3.8,0.4
			c-1.2,0-2.4-0.2-3-0.2c0-0.4-0.2-0.6-0.2-1.2c0-0.4,0-1,0.2-1.4h3h4c0.6,0,1-0.4,1.2-1c0,0,0.4-1.4,0.4-2.8c0-1.4-0.4-2.4-0.4-2.6
			c-0.2-0.4-0.4-0.8-1-0.8c0,0-2-0.4-4.2-0.4c-1.2,0-2.2,0.2-3,0.2c0-0.6-0.2-1-0.2-1.6c0-0.4,0-0.6,0-0.8c1.4-0.2,4.2-0.6,7.2-0.6
			c4,0,7.2,0.8,7.2,0.8c0.6,0.2,1.2-0.2,1.4-0.6c0-0.2,1-2.4,1-3.8c0-1.8-1.2-2.6-1.8-2.6c-0.2,0-5.6-1.2-11.8-1.2
			c-4.6,0-8.8,0.6-10.8,1c-0.2-0.8-0.6-1.8-0.6-2.4c0-0.4,0.2-0.6,0.2-0.8c3.2-0.2,7-0.6,11-0.6c8,0,15.6,1,18,1.4
			c0.4,2.4,1.4,10,1.4,18.1C94,77.1,93,84.6,92.6,87.2z"/>
		<circle id="circle3021" class="st5" cx="47.5" cy="69.5" r="6.5"/>
		<circle id="circle3023" class="st5" cx="103.5" cy="69.5" r="6.5"/>
		<path id="path3025" class="st6" d="M99.2,44H52.8C45.5,50.4,41,59.8,41,70.5C41,81,45.7,90.4,52.8,97h46.3
			c7.3-6.4,11.8-15.8,11.8-26.5S106.3,50.4,99.2,44z M74.5,90.6c-12,0-21.6-9.7-21.6-21.8c0-11.9,9.6-21.8,21.6-21.8
			s21.6,9.7,21.6,21.8S86.5,90.6,74.5,90.6z"/>
		<circle id="circle3027" class="st7" cx="68" cy="60" r="6"/>
	</g>
</g>
</svg>
