<?xml version="1.0" encoding="utf-8"?>
<!-- Generator: Adobe Illustrator 22.0.1, SVG Export Plug-In . SVG Version: 6.00 Build 0)  -->
<svg version="1.1" id="图层_1" xmlns="http://www.w3.org/2000/svg" xmlns:xlink="http://www.w3.org/1999/xlink" x="0px" y="0px"
	 viewBox="0 0 150 150" style="enable-background:new 0 0 150 150;" xml:space="preserve">
<style type="text/css">
	.st0{fill:#3E3A39;}
	.st1{fill:#595757;}
	.st2{fill:#888888;}
	.st3{fill:#9E9E9F;}
</style>
<g>
	<rect x="49.8" y="24.4" class="st0" width="53.2" height="53.6"/>
	<polygon class="st1" points="103,21.3 47,21.3 49.8,24.4 103,24.4 	"/>
	<polygon class="st1" points="47,21.3 49.8,24.4 49.8,78 47,78 	"/>
	<g>
		<rect x="57.1" y="78" class="st2" width="3.3" height="50.7"/>
		<rect x="74.8" y="78" class="st2" width="3.3" height="50.7"/>
		<rect x="92.4" y="78" class="st2" width="3.3" height="50.7"/>
	</g>
	<g>
		<path class="st3" d="M56.8,51.9v-8.6h1.1v7.6h4.2v1H56.8z"/>
		<path class="st3" d="M63.4,51.9v-8.6h1.7l2,6.1c0.2,0.6,0.3,1,0.4,1.3c0.1-0.3,0.3-0.8,0.5-1.4l2.1-6h1.5v8.6h-1.1v-7.2L68,51.9
			h-1l-2.5-7.3v7.3H63.4z"/>
		<path class="st3" d="M73,49.6l1.1-0.1c0.1,0.6,0.3,1,0.6,1.3s0.6,0.4,1.1,0.4c0.5,0,0.9-0.2,1.3-0.5s0.5-0.8,0.5-1.3
			c0-0.5-0.2-0.9-0.5-1.2s-0.7-0.5-1.2-0.5c-0.2,0-0.4,0-0.7,0.1l0.1-0.9c0.1,0,0.1,0,0.2,0c0.4,0,0.9-0.1,1.2-0.4s0.5-0.6,0.5-1.1
			c0-0.4-0.1-0.7-0.4-1s-0.6-0.4-1-0.4c-0.4,0-0.8,0.1-1,0.4s-0.4,0.6-0.5,1.2l-1.1-0.2c0.1-0.7,0.4-1.3,0.9-1.6s1-0.6,1.7-0.6
			c0.5,0,0.9,0.1,1.3,0.3s0.7,0.5,0.9,0.8s0.3,0.7,0.3,1.1c0,0.4-0.1,0.7-0.3,1s-0.5,0.5-0.9,0.7c0.5,0.1,0.9,0.4,1.2,0.7
			s0.4,0.8,0.4,1.4c0,0.8-0.3,1.4-0.8,1.9S76.6,52,75.8,52c-0.8,0-1.4-0.2-1.9-0.7S73.1,50.3,73,49.6z"/>
		<path class="st3" d="M79.7,49.6l1.1-0.1c0.1,0.5,0.3,0.9,0.6,1.2s0.7,0.4,1.1,0.4c0.5,0,0.9-0.2,1.3-0.6s0.5-0.9,0.5-1.5
			c0-0.6-0.2-1.1-0.5-1.4s-0.8-0.5-1.3-0.5c-0.3,0-0.6,0.1-0.9,0.2s-0.5,0.4-0.6,0.6l-1-0.1l0.8-4.4H85v1h-3.4l-0.5,2.3
			c0.5-0.4,1.1-0.5,1.6-0.5c0.8,0,1.4,0.3,1.9,0.8s0.8,1.2,0.8,2c0,0.8-0.2,1.4-0.7,2c-0.6,0.7-1.3,1-2.3,1c-0.8,0-1.4-0.2-1.9-0.7
			S79.8,50.3,79.7,49.6z"/>
	</g>
</g>
</svg>
