<?xml version="1.0" standalone="no"?>
<!DOCTYPE svg PUBLIC "-//W3C//DTD SVG 1.1//EN" "http://www.w3.org/Graphics/SVG/1.1/DTD/svg11.dtd" >
<!--
2013-9-30: Created.
-->
<svg>
<metadata>
Created by iconfont
</metadata>
<defs>

<font id="font_family" horiz-adv-x="1024" >
  <font-face
    font-family="font_family"
    font-weight="500"
    font-stretch="normal"
    units-per-em="1024"
    ascent="896"
    descent="-128"
  />
    <missing-glyph />
    
    <glyph glyph-name="x" unicode="x" horiz-adv-x="1001"
d="M281 543q-27 -1 -53 -1h-83q-18 0 -36.5 -6t-32.5 -18.5t-23 -32t-9 -45.5v-76h912v41q0 16 -0.5 30t-0.5 18q0 13 -5 29t-17 29.5t-31.5 22.5t-49.5 9h-133v-97h-438v97zM955 310v-52q0 -23 0.5 -52t0.5 -58t-10.5 -47.5t-26 -30t-33 -16t-31.5 -4.5q-14 -1 -29.5 -0.5
t-29.5 0.5h-32l-45 128h-439l-44 -128h-29h-34q-20 0 -45 1q-25 0 -41 9.5t-25.5 23t-13.5 29.5t-4 30v167h911zM163 247q-12 0 -21 -8.5t-9 -21.5t9 -21.5t21 -8.5q13 0 22 8.5t9 21.5t-9 21.5t-22 8.5zM316 123q-8 -26 -14 -48q-5 -19 -10.5 -37t-7.5 -25t-3 -15t1 -14.5
t9.5 -10.5t21.5 -4h37h67h81h80h64h36q23 0 34 12t2 38q-5 13 -9.5 30.5t-9.5 34.5q-5 19 -11 39h-368zM336 498v228q0 11 2.5 23t10 21.5t20.5 15.5t34 6h188q31 0 51.5 -14.5t20.5 -52.5v-227h-327z" />
    

    
    <glyph glyph-name="icon_bangzhu" unicode="&#58937;" d="M309.312 64c0-35.328-26.24-64-58.624-64C218.24 0 192 28.672 192 64c0 103.04 63.68 192 150.336 192h494.976c32.448 0 58.688-28.672 58.688-64s-26.24-64-58.688-64H342.4c-14.592 0-33.024-25.664-33.024-64zM768 704H291.968C271.488 704 256 689.088 256 672v-576c0-17.088 15.552-32 36.032-32H768V704zM291.968 832H832a64 64 0 0 0 64-64v-768a64 64 0 0 0-64-64H291.968C202.048-64 128 7.04 128 96v576C128 760.96 201.984 832 292.032 832z"  horiz-adv-x="1024" />

    
    <glyph glyph-name="icon_chazhao" unicode="&#58938;" d="M670.496 135.008A382.24 382.24 0 0 0 448 64C235.936 64 64 235.936 64 448S235.936 832 448 832s384-171.936 384-384c0-82.944-26.304-159.712-71.008-222.496l180.256-180.256a64 64 0 0 0-90.496-90.496l-180.256 180.256zM448 192a256 256 0 1 1 0 512 256 256 0 0 1 0-512z"  horiz-adv-x="1024" />

    
    <glyph glyph-name="icon_chuankoujianshiqi" unicode="&#58939;" d="M832 544h32a128 128 0 0 0 128-128v-215.872a128 128 0 0 0-20.32-69.216l-66.944-104.128A128 128 0 0 0 797.056-32H226.944a128 128 0 0 0-107.68 58.784l-66.944 104.128A128 128 0 0 0 32 200.128V416a128 128 0 0 0 128 128h32V736a64 64 0 0 0 64 64h512a64 64 0 0 0 64-64v-192z m-128 0V672H320v-128h384zM160 416v-215.872L226.944 96h570.112L864 200.128V416H160z m160-96h384a64 64 0 1 0 0-128H320a64 64 0 1 0 0 128z"  horiz-adv-x="1024" />

    
    <glyph glyph-name="icon_daochudaima" unicode="&#58940;" d="M470.72 880.896A63.744 63.744 0 0 0 512 896c15.744 0 30.144-5.696 41.28-15.104l191.68-159.744a64 64 0 0 0-81.92-98.304L576 695.36V256a64 64 0 1 0-128 0V695.36l-87.04-72.512a64 64 0 0 0-81.92 98.304L470.72 880.896zM96 416a64 64 0 1 0 128 0v-358.4c0-14.4 11.008-25.6 24-25.6h528c12.992 0 24 11.2 24 25.6V416a64 64 0 1 0 128 0v-358.4c0-84.576-67.808-153.6-152-153.6H248C163.808-96 96-26.976 96 57.6V416z"  horiz-adv-x="1024" />

    
    <glyph glyph-name="icon_baocun" unicode="&#58941;" d="M677.504 672H238.208A14.208 14.208 0 0 1 224 657.792v-547.584c0-7.84 6.368-14.208 14.208-14.208h547.584a14.208 14.208 0 0 1 14.208 14.208V549.504L677.504 672z m108.288-704H238.208A142.208 142.208 0 0 0 96 110.208V657.792A142.208 142.208 0 0 0 238.208 800H704a64 64 0 0 0 45.248-18.752l160-160A64 64 0 0 0 928 576v-465.792A142.208 142.208 0 0 0 785.792-32zM448 192v-128a64 64 0 1 0-128 0v192a64 64 0 0 0 64 64h256a64 64 0 0 0 64-64v-192a64 64 0 1 0-128 0v128h-128zM448 576h192a64 64 0 1 0 0-128h-256a64 64 0 0 0-64 64V704a64 64 0 1 0 128 0v-128z"  horiz-adv-x="1024" />

    
    <glyph glyph-name="icon_chexiao" unicode="&#58942;" d="M163.904 246.08A64 64 0 1 0 284.864 288c41.824-120.96 156.704-198.816 281.6-191.488 124.992 7.328 230.464 98.24 258.432 223.36 28.032 125.44-28.704 254.496-138.72 316.448C576.64 697.92 440.512 678.4 350.4 586.88l-178.176-170.56a64 64 0 0 0-88.512 92.48l176.8 169.184c129.184 131.328 328.48 159.904 488.416 69.824 159.424-89.76 241.152-275.584 200.864-455.872-40.352-180.576-193.472-312.544-375.872-323.232-182.432-10.688-349.568 102.592-410.048 277.408zM192 512h192a64 64 0 1 0 0-128H128a64 64 0 0 0-64 64V704a64 64 0 1 0 128 0v-192z"  horiz-adv-x="1024" />

    
    <glyph glyph-name="icon_fanhuijiantou" unicode="&#58943;" d="M896 448a64 64 0 1 0 0-128H128a64 64 0 1 0 0 128h768zM461.248 141.248a64 64 0 0 0-90.496-90.496l-288 288a64 64 0 0 0 0 90.496l288 288a64 64 0 0 0 90.496-90.496L218.496 384l242.752-242.752z"  horiz-adv-x="1024" />

    
    <glyph glyph-name="icon_fuzhi" unicode="&#58944;" d="M448 576h384a128 128 0 0 0 128-128v-384a128 128 0 0 0-128-128H448a128 128 0 0 0-128 128V448a128 128 0 0 0 128 128z m0-128v-384h384V448H448z m-256-128h32a64 64 0 1 0 0-128H192c-78.848 0-128 49.152-128 128V704c0 78.848 49.152 128 128 128h384c78.848 0 128-49.152 128-128v-32a64 64 0 1 0-128 0V704H192v-384z"  horiz-adv-x="1024" />

    
    <glyph glyph-name="icon_guanbidanchuang" unicode="&#58945;" d="M608.192 384l267.84-267.84a68.032 68.032 0 1 0-96.192-96.256L512 287.808 244.16 19.84a67.84 67.84 0 0 0-96.192 0 68.032 68.032 0 0 0 0 96.192L415.744 384 147.968 651.84A68.032 68.032 0 1 0 244.16 748.16L512 480.192l267.84 267.904a68.032 68.032 0 1 0 96.192-96.256L608.192 384z"  horiz-adv-x="1024" />

    
    <glyph glyph-name="icon_geshihua" unicode="&#58946;" d="M598.816 192h-177.504l-66.56-64h180.544l63.52 64z m121.76 122.688l86.272 86.912a196.672 196.672 0 0 1 0.064 277.152 193.728 193.728 0 0 1-274.976 0L259.84 405.44v-191.072l91.264 87.744 0.128 0.128 299.456 287.936a64 64 0 1 0 88.704-92.288L554.432 320h140.608c9.088 0 17.728-1.92 25.536-5.312zM221.632 0l-81.28-78.144a64 64 0 1 0-88.704 92.288l80.192 77.12V431.776a64 64 0 0 0 18.656 45.152l290.72 292.096a321.728 321.728 0 0 0 456.416 0c125.824-126.4 125.824-331.2 0-457.632l-290.24-292.48a64 64 0 0 0-45.44-18.944H221.632z"  horiz-adv-x="1024" />

    
    <glyph glyph-name="icon_guanbiyingyong" unicode="&#58947;" d="M1007.617075 801.094228A55.548355 55.548355 0 1 1 929.030233 879.681071L511.969602 462.620441 94.908972 879.681071A55.548355 55.548355 0 1 1 16.322129 801.094228L433.382759 384.033598 16.322129-33.027033a55.548355 55.548355 0 1 1 78.586843-78.650838L511.969602 305.382759l417.060631-417.06063a55.420363 55.420363 0 0 1 78.586842 0 55.548355 55.548355 0 0 1 0 78.650838L590.556445 384.033598l417.06063 417.06063z"  horiz-adv-x="1024" />

    
    <glyph glyph-name="icon_jianqie" unicode="&#58948;" d="M429.28 557.216l16-15.968a64 64 0 0 0-90.56-90.496l-15.936 15.968a192 192 0 1 0 90.496 90.496z m-90.496-255.936l479.968 480a64 64 0 0 0 90.496-90.56L429.28 210.816a192 192 0 1 0-90.496 90.496zM256 576a64 64 0 1 1 0 128 64 64 0 0 1 0-128z m0-512a64 64 0 1 1 0 128 64 64 0 0 1 0-128z m322.752 162.752a64 64 0 0 0 90.496 90.496l240-240a64 64 0 0 0-90.496-90.496l-240 240z"  horiz-adv-x="1024" />

    
    <glyph glyph-name="icon_kuguanli" unicode="&#58949;" d="M64 704h192a64 64 0 0 0 64-64v-640a64 64 0 0 0-64-64H64a64 64 0 0 0-64 64V640a64 64 0 0 0 64 64z m64-128v-512h64V576H128z m288 256h192a64 64 0 0 0 64-64v-640a64 64 0 0 0-64-64h-192a64 64 0 0 0-64 64V768a64 64 0 0 0 64 64z m64-128v-512h64V704h-64z m288 0h192a64 64 0 0 0 64-64v-640a64 64 0 0 0-64-64h-192a64 64 0 0 0-64 64V640a64 64 0 0 0 64 64z m64-128v-512h64V576h-64z"  horiz-adv-x="1024" />

    
    <glyph glyph-name="icon_kaifabanguanli" unicode="&#58950;" d="M448 768h128V832a64 64 0 1 0 128 0v-64h64a128 128 0 0 0 128-128v-64h64a64 64 0 1 0 0-128h-64v-128h64a64 64 0 1 0 0-128h-64v-64a128 128 0 0 0-128-128h-64v-64a64 64 0 1 0-128 0v64h-128v-64a64 64 0 1 0-128 0v64H256a128 128 0 0 0-128 128v64H64a64 64 0 1 0 0 128h64v128H64a64 64 0 1 0 0 128h64V640a128 128 0 0 0 128 128h64V832a64 64 0 1 0 128 0v-64zM256 640v-512h512V640H256z"  horiz-adv-x="1024" />

    
    <glyph glyph-name="icon_quanxuan" unicode="&#58951;" d="M768 512h-160a64 64 0 0 0-64 64V736H272c-8.256 0-16-8.032-16-19.2v-665.6c0-11.168 7.744-19.2 16-19.2h480c8.256 0 16 8.032 16 19.2V512zM592 864a64 64 0 0 0 46.144-19.648l240-249.6A64 64 0 0 0 896 550.4v-499.2c0-80.736-63.904-147.2-144-147.2h-480C191.904-96 128-29.536 128 51.2V716.8C128 797.536 191.904 864 272 864h320z m16-416a64 64 0 1 0 0-128h-192a64 64 0 1 0 0 128h192z m0-192a64 64 0 1 0 0-128h-192a64 64 0 1 0 0 128h192z"  horiz-adv-x="1024" />

    
    <glyph glyph-name="icon_shili" unicode="&#58952;" d="M608 687.712V576h109.728L608 687.712zM800 448h-256a64 64 0 0 0-64 64V768H248c-12.992 0-24-11.2-24-25.6v-716.8c0-14.4 11.008-25.6 24-25.6h528c12.992 0 24 11.2 24 25.6V448zM556 896a64 64 0 0 0 45.664-19.168l308-313.6A64 64 0 0 0 928 518.4v-492.8c0-84.576-67.808-153.6-152-153.6H248C163.808-128 96-58.976 96 25.6V742.4C96 826.976 163.808 896 248 896h308z"  horiz-adv-x="1024" />

    
    <glyph glyph-name="icon_shangchuan1" unicode="&#58953;" d="M448.02848 197.504l-50.752-50.752a64 64 0 0 0-90.496 90.496l160 160a64 64 0 0 0 90.496 0l160-160a64 64 0 0 0-90.496-90.496L576.02848 197.504V-32a64 64 0 1 0-128 0v229.504z m303.712 385.056h4.832c122.624-0.096 229.248-84.8 259.232-205.216 29.92-120-23.68-245.632-130.816-305.28a64 64 0 1 0-62.272 111.84c56.32 31.36 84.896 98.304 68.896 162.496-15.904 63.808-71.648 108.096-135.072 108.16h-51.328a64 64 0 0 0-62.048 48.288c-27.264 107.776-116.384 186.88-223.808 199.424-107.264 12.512-211.2-43.904-261.44-142.336-50.496-98.976-36.064-219.648 36.16-303.136a64 64 0 1 0-96.768-83.744C-9.05952 296-30.24352 472.8 43.86848 618.112c74.432 145.824 229.6 230.048 390.304 211.296 143.808-16.768 264.96-112.8 317.568-246.848z"  horiz-adv-x="1024" />

    
    <glyph glyph-name="icon_tihuan" unicode="&#58954;" d="M314.496 192h393.056C759.264 192 800 230.88 800 277.344V352a64 64 0 1 0 128 0v-74.656C928 158.816 828.64 64 707.552 64H314.496l50.752-50.752a64 64 0 0 0-90.496-90.496l-160 160a64 64 0 0 0 0 90.496l160 160a64 64 0 0 0 90.496-90.496L314.496 192z m395.008 384H316.448C264.736 576 224 537.12 224 490.656V416a64 64 0 1 0-128 0v74.656C96 609.184 195.36 704 316.448 704h393.056l-50.752 50.752a64 64 0 0 0 90.496 90.496l160-160a64 64 0 0 0 0-90.496l-160-160a64 64 0 0 0-90.496 90.496L709.504 576z"  horiz-adv-x="1024" />

    
    <glyph glyph-name="icon_wenjian" unicode="&#58955;" d="M960 85.333333c0-47.146667-40.106667-85.333333-89.6-85.333333H153.6C104.106667 0 64 38.186667 64 85.333333V682.666667c0 47.146667 40.106667 85.333333 89.6 85.333333H384l85.333333-128h401.066667c49.493333 0 89.6-38.186667 89.6-85.333333v-469.333334z"  horiz-adv-x="1024" />

    
    <glyph glyph-name="icon_niantie" unicode="&#58956;" d="M448 224h-32a64 64 0 1 0 0 128h32v32a64 64 0 1 0 128 0v-32h32a64 64 0 1 0 0-128h-32v-32a64 64 0 1 0-128 0v32z m96 512H256v-704h512V512h-160a64 64 0 0 0-64 64V736z m52.224 128a64 64 0 0 0 44.064-17.6l235.776-224A64 64 0 0 0 896 576v-544c0-78.4-52.448-128-131.36-128H259.36C180.48-96 128-46.4 128 32V736c0 78.4 52.448 128 131.36 128h336.864z"  horiz-adv-x="1024" />

    
    <glyph glyph-name="icon_zhushi" unicode="&#58957;" d="M310.464 64l-142.496-113.984C126.08-83.488 64-53.664 64 0V640c0 82.464 45.536 128 128 128h640c82.464 0 128-45.536 128-128v-448c0-82.464-45.536-128-128-128H310.464zM832 192V640H192v-506.848l56 44.8A64 64 0 0 0 288 192h544z m-512 160a64 64 0 1 0 0 128 64 64 0 0 0 0-128z m192 0a64 64 0 1 0 0 128 64 64 0 0 0 0-128z m192 0a64 64 0 1 0 0 128 64 64 0 0 0 0-128z"  horiz-adv-x="1024" />

    
    <glyph glyph-name="icon_yanzheng" unicode="&#58958;" d="M864 422.464a64 64 0 1 0 128 0v-38.72a480 480 0 0 0-882.656-260.992A479.936 479.936 0 0 0 707.36 822.432a64 64 0 0 0-52.096-116.928A352 352 0 0 1 216.704 192.448 352 352 0 0 1 864 383.776v38.688z m50.976 359.04a64 64 0 0 0 90.048-90.976l-452.576-448a64 64 0 0 0-90.048 0l-123.424 122.176a64 64 0 0 0 90.048 90.976l78.4-77.632L914.976 781.472z"  horiz-adv-x="1024" />

    
    <glyph glyph-name="icon_zhongzuo" unicode="&#58959;" d="M739.136 287.712a64 64 0 0 0 120.928-41.92c-60.64-174.784-227.904-287.936-410.368-277.088-182.4 10.88-335.424 143.008-375.616 323.648-40.096 180.352 41.824 366.08 201.376 455.68a404.384 404.384 0 0 0 487.04-69.024l177.792-170.528a64 64 0 1 0-88.576-92.384l-179.2 171.904c-88.64 90.304-224.832 109.952-334.4 48.448-110.08-61.824-166.976-190.848-139.072-316.32 27.84-125.184 133.248-216.192 258.24-223.648 124.96-7.424 239.904 70.336 281.856 191.232zM832 512V704a64 64 0 1 0 128 0v-256a64 64 0 0 0-64-64h-256a64 64 0 1 0 0 128h192z"  horiz-adv-x="1024" />

    
    <glyph glyph-name="icon_zuidahua" unicode="&#58960;" d="M939.2 27.52c0-39.04-31.744-70.72-70.656-70.72H155.456a70.72 70.72 0 0 0-70.656 70.72V740.48c0 39.04 31.744 70.72 70.656 70.72h713.088c38.912 0 70.656-31.744 70.656-70.656V27.52zM155.456 896C69.76 896 0 826.24 0 740.48v-712.96C0-58.24 69.76-128 155.52-128h712.96c85.76 0 155.52 69.76 155.52 155.52V740.48C1024 826.24 954.24 896 868.48 896H155.52z"  horiz-adv-x="1024" />

    


  </font>
</defs>
</svg>
